Kablammov0.13-C.ufo
<glyph name="quotedbl" format="2">
  <advance width="391"/>
  <unicode hex="0022"/>
  <outline>
    <contour>
      <point x="49" y="419" type="curve" smooth="yes"/>
      <point x="52" y="393"/>
      <point x="65" y="374"/>
      <point x="99" y="374" type="curve" smooth="yes"/>
      <point x="132" y="374"/>
      <point x="149" y="387"/>
      <point x="152" y="416" type="curve" smooth="yes"/>
      <point x="159" y="488"/>
      <point x="166" y="567"/>
      <point x="171" y="623" type="curve" smooth="yes"/>
      <point x="176" y="689"/>
      <point x="149" y="716"/>
      <point x="103" y="716" type="curve" smooth="yes"/>
      <point x="60" y="716"/>
      <point x="36" y="691"/>
      <point x="38" y="644" type="curve" smooth="yes"/>
      <point x="39" y="596"/>
      <point x="41" y="567"/>
      <point x="43" y="531" type="curve"/>
      <point x="104" y="538"/>
      <point x="120" y="538"/>
      <point x="121" y="504" type="curve" smooth="yes"/>
      <point x="122" y="472"/>
      <point x="103" y="469"/>
      <point x="45" y="463" type="curve"/>
      <point x="46" y="448"/>
      <point x="48" y="432"/>
    </contour>
    <contour>
      <point x="231" y="447" type="curve" smooth="yes"/>
      <point x="234" y="403"/>
      <point x="259" y="392"/>
      <point x="285" y="392" type="curve" smooth="yes"/>
      <point x="307" y="392"/>
      <point x="336" y="404"/>
      <point x="339" y="444" type="curve" smooth="yes"/>
      <point x="344" y="502"/>
      <point x="349" y="568"/>
      <point x="350" y="626" type="curve" smooth="yes"/>
      <point x="351" y="688"/>
      <point x="320" y="707"/>
      <point x="285" y="707" type="curve" smooth="yes"/>
      <point x="250" y="707"/>
      <point x="223" y="688"/>
      <point x="224" y="635" type="curve" smooth="yes"/>
      <point x="224" y="628"/>
      <point x="224" y="620"/>
      <point x="224" y="613" type="curve"/>
      <point x="289" y="614"/>
      <point x="301" y="606"/>
      <point x="302" y="584" type="curve" smooth="yes"/>
      <point x="303" y="562"/>
      <point x="292" y="554"/>
      <point x="226" y="551" type="curve"/>
      <point x="226" y="545"/>
      <point x="226" y="539"/>
      <point x="227" y="533" type="curve"/>
      <point x="227" y="533"/>
      <point x="228" y="517"/>
      <point x="228" y="501" type="curve" smooth="yes"/>
      <point x="229" y="479"/>
      <point x="230" y="472"/>
      <point x="230" y="472" type="curve"/>
      <point x="230" y="464"/>
      <point x="230" y="456"/>
    </contour>
  </outline>
</glyph>
<glyph name="numbersign" format="2">
  <advance width="743"/>
  <unicode hex="0023"/>
  <outline>
    <contour>
      <point x="243" y="634" type="curve" smooth="yes"/>
      <point x="206" y="445"/>
      <point x="171" y="257"/>
      <point x="139" y="68" type="curve" smooth="yes"/>
      <point x="132" y="30"/>
      <point x="139" y="10"/>
      <point x="162" y="6" type="curve" smooth="yes"/>
      <point x="184" y="3"/>
      <point x="204" y="15"/>
      <point x="212" y="54" type="curve" smooth="yes"/>
      <point x="256" y="241"/>
      <point x="304" y="426"/>
      <point x="343" y="614" type="curve" smooth="yes"/>
      <point x="352" y="655"/>
      <point x="339" y="678"/>
      <point x="307" y="685" type="curve" smooth="yes"/>
      <point x="276" y="692"/>
      <point x="252" y="676"/>
    </contour>
    <contour>
      <point x="502" y="734" type="curve" smooth="yes"/>
      <point x="473" y="508"/>
      <point x="450" y="286"/>
      <point x="429" y="59" type="curve" smooth="yes"/>
      <point x="425" y="18"/>
      <point x="442" y="-1"/>
      <point x="468" y="-3" type="curve" smooth="yes"/>
      <point x="493" y="-6"/>
      <point x="515" y="10"/>
      <point x="518" y="46" type="curve" smooth="yes"/>
      <point x="540" y="273"/>
      <point x="566" y="495"/>
      <point x="585" y="720" type="curve" smooth="yes"/>
      <point x="589" y="764"/>
      <point x="571" y="782"/>
      <point x="549" y="782" type="curve" smooth="yes"/>
      <point x="527" y="782"/>
      <point x="507" y="771"/>
    </contour>
    <contour>
      <point x="85" y="529" type="curve" smooth="yes"/>
      <point x="49" y="530"/>
      <point x="31" y="519"/>
      <point x="29" y="491" type="curve" smooth="yes"/>
      <point x="27" y="465"/>
      <point x="43" y="446"/>
      <point x="80" y="443" type="curve" smooth="yes"/>
      <point x="265" y="426"/>
      <point x="458" y="411"/>
      <point x="650" y="398" type="curve" smooth="yes"/>
      <point x="685" y="396"/>
      <point x="707" y="411"/>
      <point x="707" y="440" type="curve" smooth="yes"/>
      <point x="708" y="471"/>
      <point x="694" y="488"/>
      <point x="656" y="491" type="curve" smooth="yes"/>
      <point x="471" y="508"/>
      <point x="271" y="522"/>
    </contour>
    <contour>
      <point x="93" y="294" type="curve" smooth="yes"/>
      <point x="53" y="291"/>
      <point x="37" y="276"/>
      <point x="37" y="250" type="curve" smooth="yes"/>
      <point x="36" y="221"/>
      <point x="51" y="200"/>
      <point x="90" y="201" type="curve" smooth="yes"/>
      <point x="269" y="206"/>
      <point x="442" y="212"/>
      <point x="617" y="223" type="curve" smooth="yes"/>
      <point x="651" y="225"/>
      <point x="664" y="245"/>
      <point x="662" y="274" type="curve" smooth="yes"/>
      <point x="660" y="303"/>
      <point x="644" y="317"/>
      <point x="613" y="316" type="curve" smooth="yes"/>
      <point x="442" y="312"/>
      <point x="270" y="305"/>
    </contour>
  </outline>
</glyph>
<glyph name="percent" format="2">
  <advance width="664"/>
  <unicode hex="0025"/>
  <outline>
    <contour>
      <point x="191" y="371" type="curve" smooth="yes"/>
      <point x="266" y="371"/>
      <point x="326" y="422"/>
      <point x="325" y="534" type="curve" smooth="yes"/>
      <point x="324" y="630"/>
      <point x="272" y="685"/>
      <point x="188" y="685" type="curve" smooth="yes"/>
      <point x="111" y="685"/>
      <point x="57" y="622"/>
      <point x="57" y="524" type="curve" smooth="yes"/>
      <point x="57" y="429"/>
      <point x="103" y="371"/>
    </contour>
    <contour>
      <point x="184" y="442" type="curve" smooth="yes"/>
      <point x="146" y="442"/>
      <point x="126" y="473"/>
      <point x="126" y="522" type="curve" smooth="yes"/>
      <point x="126" y="571"/>
      <point x="148" y="606"/>
      <point x="182" y="606" type="curve" smooth="yes"/>
      <point x="219" y="606"/>
      <point x="246" y="577"/>
      <point x="246" y="530" type="curve" smooth="yes"/>
      <point x="246" y="475"/>
      <point x="220" y="442"/>
    </contour>
    <contour>
      <point x="475" y="-12" type="curve" smooth="yes"/>
      <point x="571" y="-12"/>
      <point x="625" y="34"/>
      <point x="625" y="130" type="curve" smooth="yes"/>
      <point x="625" y="221"/>
      <point x="570" y="274"/>
      <point x="488" y="274" type="curve" smooth="yes"/>
      <point x="407" y="274"/>
      <point x="346" y="220"/>
      <point x="346" y="128" type="curve" smooth="yes"/>
      <point x="346" y="44"/>
      <point x="398" y="-12"/>
    </contour>
    <contour>
      <point x="478" y="58" type="curve" smooth="yes"/>
      <point x="434" y="58"/>
      <point x="415" y="87"/>
      <point x="415" y="127" type="curve" smooth="yes"/>
      <point x="415" y="166"/>
      <point x="441" y="194"/>
      <point x="480" y="194" type="curve" smooth="yes"/>
      <point x="518" y="194"/>
      <point x="542" y="169"/>
      <point x="542" y="125" type="curve" smooth="yes"/>
      <point x="542" y="81"/>
      <point x="521" y="58"/>
    </contour>
    <contour>
      <point x="463" y="25" type="line"/>
      <point x="480" y="-136"/>
      <point x="495" y="-153"/>
      <point x="527" y="-149" type="curve" smooth="yes"/>
      <point x="558" y="-145"/>
      <point x="566" y="-121"/>
      <point x="540" y="36" type="curve"/>
    </contour>
    <contour>
      <point x="369" y="112" type="line"/>
      <point x="272" y="78"/>
      <point x="256" y="53"/>
      <point x="266" y="26" type="curve" smooth="yes"/>
      <point x="276" y="-1"/>
      <point x="299" y="-9"/>
      <point x="399" y="36" type="curve"/>
    </contour>
    <contour>
      <point x="144" y="619" type="line"/>
      <point x="133" y="633"/>
      <point x="112" y="636"/>
      <point x="92" y="613" type="curve" smooth="yes"/>
      <point x="73" y="591"/>
      <point x="79" y="575"/>
      <point x="96" y="563" type="curve"/>
    </contour>
    <contour>
      <point x="237" y="656" type="line"/>
      <point x="251" y="760"/>
      <point x="239" y="785"/>
      <point x="207" y="787" type="curve" smooth="yes"/>
      <point x="173" y="789"/>
      <point x="162" y="768"/>
      <point x="156" y="662" type="curve"/>
    </contour>
    <contour>
      <point x="78" y="499" type="line"/>
      <point x="-11" y="432"/>
      <point x="-27" y="405"/>
      <point x="-8" y="379" type="curve" smooth="yes"/>
      <point x="10" y="355"/>
      <point x="34" y="359"/>
      <point x="134" y="429" type="curve"/>
    </contour>
    <contour>
      <point x="557" y="596" type="curve" smooth="yes"/>
      <point x="379" y="429"/>
      <point x="220" y="274"/>
      <point x="47" y="106" type="curve" smooth="yes"/>
      <point x="20" y="80"/>
      <point x="17" y="58"/>
      <point x="33" y="42" type="curve" smooth="yes"/>
      <point x="49" y="25"/>
      <point x="71" y="30"/>
      <point x="95" y="52" type="curve" smooth="yes"/>
      <point x="266" y="211"/>
      <point x="433" y="365"/>
      <point x="611" y="536" type="curve" smooth="yes"/>
      <point x="639" y="563"/>
      <point x="646" y="589"/>
      <point x="626" y="609" type="curve" smooth="yes"/>
      <point x="609" y="626"/>
      <point x="584" y="621"/>
    </contour>
    <contour>
      <point x="572" y="173" type="line"/>
      <point x="583" y="186"/>
      <point x="590" y="199"/>
      <point x="572" y="221" type="curve" smooth="yes"/>
      <point x="553" y="243"/>
      <point x="542" y="240"/>
      <point x="524" y="229" type="curve"/>
    </contour>
  </outline>
</glyph>
<glyph name="quotesingle" format="2">
  <advance width="203"/>
  <unicode hex="0027"/>
  <outline>
    <contour>
      <point x="57" y="448" type="curve" smooth="yes"/>
      <point x="62" y="415"/>
      <point x="79" y="393"/>
      <point x="108" y="393" type="curve" smooth="yes"/>
      <point x="137" y="393"/>
      <point x="161" y="410"/>
      <point x="163" y="457" type="curve" smooth="yes"/>
      <point x="166" y="516"/>
      <point x="167" y="571"/>
      <point x="167" y="634" type="curve" smooth="yes"/>
      <point x="167" y="712"/>
      <point x="149" y="746"/>
      <point x="102" y="746" type="curve" smooth="yes"/>
      <point x="58" y="746"/>
      <point x="37" y="713"/>
      <point x="40" y="652" type="curve" smooth="yes"/>
      <point x="41" y="628"/>
      <point x="42" y="613"/>
      <point x="44" y="597" type="curve"/>
      <point x="103" y="601"/>
      <point x="118" y="600"/>
      <point x="121" y="573" type="curve" smooth="yes"/>
      <point x="124" y="542"/>
      <point x="101" y="539"/>
      <point x="48" y="535" type="curve"/>
      <point x="51" y="503"/>
      <point x="54" y="468"/>
    </contour>
  </outline>
</glyph>
<glyph name="asterisk" format="2">
  <advance width="539"/>
  <unicode hex="002A"/>
  <outline>
    <contour>
      <point x="60" y="529" type="curve" smooth="yes"/>
      <point x="95" y="515"/>
      <point x="148" y="506"/>
      <point x="187" y="488" type="curve" smooth="yes"/>
      <point x="201" y="481"/>
      <point x="204" y="471"/>
      <point x="193" y="464" type="curve" smooth="yes"/>
      <point x="156" y="442"/>
      <point x="118" y="431"/>
      <point x="77" y="410" type="curve" smooth="yes"/>
      <point x="42" y="392"/>
      <point x="39" y="353"/>
      <point x="56" y="328" type="curve" smooth="yes"/>
      <point x="76" y="299"/>
      <point x="107" y="299"/>
      <point x="138" y="327" type="curve" smooth="yes"/>
      <point x="172" y="357"/>
      <point x="194" y="387"/>
      <point x="229" y="419" type="curve" smooth="yes"/>
      <point x="239" y="429"/>
      <point x="250" y="425"/>
      <point x="252" y="410" type="curve" smooth="yes"/>
      <point x="260" y="349"/>
      <point x="262" y="297"/>
      <point x="270" y="245" type="curve" smooth="yes"/>
      <point x="278" y="197"/>
      <point x="308" y="176"/>
      <point x="348" y="189" type="curve" smooth="yes"/>
      <point x="386" y="201"/>
      <point x="405" y="233"/>
      <point x="383" y="276" type="curve" smooth="yes"/>
      <point x="358" y="325"/>
      <point x="327" y="370"/>
      <point x="302" y="427" type="curve" smooth="yes"/>
      <point x="296" y="441"/>
      <point x="300" y="450"/>
      <point x="315" y="447" type="curve" smooth="yes"/>
      <point x="359" y="439"/>
      <point x="396" y="423"/>
      <point x="435" y="416" type="curve" smooth="yes"/>
      <point x="484" y="407"/>
      <point x="515" y="427"/>
      <point x="516" y="471" type="curve" smooth="yes"/>
      <point x="515" y="513"/>
      <point x="484" y="534"/>
      <point x="438" y="527" type="curve" smooth="yes"/>
      <point x="396" y="521"/>
      <point x="361" y="507"/>
      <point x="321" y="501" type="curve" smooth="yes"/>
      <point x="307" y="499"/>
      <point x="300" y="508"/>
      <point x="306" y="519" type="curve" smooth="yes"/>
      <point x="322" y="549"/>
      <point x="347" y="575"/>
      <point x="362" y="600" type="curve" smooth="yes"/>
      <point x="383" y="638"/>
      <point x="367" y="682"/>
      <point x="323" y="692" type="curve" smooth="yes"/>
      <point x="277" y="702"/>
      <point x="245" y="681"/>
      <point x="244" y="640" type="curve" smooth="yes"/>
      <point x="243" y="609"/>
      <point x="248" y="577"/>
      <point x="247" y="548" type="curve" smooth="yes"/>
      <point x="246" y="528"/>
      <point x="231" y="520"/>
      <point x="216" y="532" type="curve" smooth="yes"/>
      <point x="183" y="558"/>
      <point x="151" y="598"/>
      <point x="117" y="626" type="curve" smooth="yes"/>
      <point x="88" y="650"/>
      <point x="51" y="640"/>
      <point x="33" y="613" type="curve" smooth="yes"/>
      <point x="15" y="586"/>
      <point x="22" y="544"/>
    </contour>
  </outline>
</glyph>
<glyph name="slash" format="2">
  <advance width="402"/>
  <unicode hex="002F"/>
  <outline>
    <contour>
      <point x="27" y="-98" type="curve" smooth="yes"/>
      <point x="57" y="-110"/>
      <point x="88" y="-103"/>
      <point x="104" y="-62" type="curve" smooth="yes"/>
      <point x="203" y="198"/>
      <point x="302" y="468"/>
      <point x="393" y="729" type="curve" smooth="yes"/>
      <point x="408" y="773"/>
      <point x="405" y="796"/>
      <point x="376" y="805" type="curve" smooth="yes"/>
      <point x="352" y="813"/>
      <point x="331" y="804"/>
      <point x="314" y="761" type="curve" smooth="yes"/>
      <point x="211" y="511"/>
      <point x="104" y="243"/>
      <point x="8" y="-13" type="curve" smooth="yes"/>
      <point x="-10" y="-61"/>
      <point x="-3" y="-84"/>
    </contour>
  </outline>
</glyph>
<glyph name="zero" format="2">
  <advance width="636"/>
  <unicode hex="0030"/>
  <guideline x="345" y="313" angle="32.5681"/>
  <guideline x="310" y="376" angle="211.3191"/>
  <outline>
    <contour>
      <point x="313" y="-14" type="curve" smooth="yes"/>
      <point x="495" y="-14"/>
      <point x="596" y="147"/>
      <point x="596" y="365" type="curve" smooth="yes"/>
      <point x="596" y="606"/>
      <point x="483" y="714"/>
      <point x="330" y="714" type="curve" smooth="yes"/>
      <point x="157" y="714"/>
      <point x="40" y="575"/>
      <point x="40" y="305" type="curve" smooth="yes"/>
      <point x="40" y="110"/>
      <point x="139" y="-14"/>
    </contour>
    <contour>
      <point x="375" y="625" type="curve" smooth="yes"/>
      <point x="453" y="625"/>
      <point x="517" y="556"/>
      <point x="517" y="368" type="curve" smooth="yes"/>
      <point x="517" y="200"/>
      <point x="451" y="70"/>
      <point x="345" y="70" type="curve" smooth="yes"/>
      <point x="247" y="70"/>
      <point x="220" y="184"/>
      <point x="220" y="308" type="curve" smooth="yes"/>
      <point x="220" y="517"/>
      <point x="285" y="625"/>
    </contour>
    <contour>
      <point x="392" y="179" type="curve" smooth="yes"/>
      <point x="417" y="179"/>
      <point x="439" y="196"/>
      <point x="439" y="221" type="curve" smooth="yes"/>
      <point x="439" y="248"/>
      <point x="416" y="271"/>
      <point x="388" y="271" type="curve" smooth="yes"/>
      <point x="362" y="271"/>
      <point x="345" y="247"/>
      <point x="345" y="221" type="curve" smooth="yes"/>
      <point x="345" y="196"/>
      <point x="363" y="179"/>
    </contour>
    <contour>
      <point x="516" y="331" type="curve"/>
      <point x="516" y="331"/>
      <point x="517" y="316"/>
      <point x="514" y="297" type="curve" smooth="yes"/>
      <point x="511" y="276"/>
      <point x="505" y="250"/>
      <point x="505" y="250" type="curve"/>
      <point x="510" y="274"/>
      <point x="517" y="309"/>
    </contour>
    <contour>
      <point x="517" y="426" type="curve"/>
      <point x="517" y="420"/>
      <point x="517" y="415"/>
      <point x="518" y="395" type="curve" smooth="yes"/>
      <point x="520" y="373"/>
      <point x="521" y="366"/>
      <point x="521" y="366" type="curve"/>
      <point x="520" y="388"/>
      <point x="519" y="401"/>
    </contour>
    <contour>
      <point x="528" y="122" type="line" smooth="yes"/>
      <point x="501" y="159"/>
      <point x="445" y="114"/>
      <point x="473" y="78" type="curve" smooth="yes"/>
      <point x="534" y="1" type="line" smooth="yes"/>
      <point x="561" y="-33"/>
      <point x="614" y="4"/>
      <point x="583" y="46" type="curve" smooth="yes"/>
    </contour>
    <contour>
      <point x="414" y="511" type="line" smooth="yes"/>
      <point x="372" y="469"/>
      <point x="432" y="428"/>
      <point x="461" y="456" type="curve" smooth="yes"/>
      <point x="598" y="589" type="line" smooth="yes"/>
      <point x="635" y="624"/>
      <point x="580" y="678"/>
      <point x="547" y="645" type="curve" smooth="yes"/>
    </contour>
    <contour>
      <point x="86" y="484" type="line" smooth="yes"/>
      <point x="58" y="493"/>
      <point x="42" y="430"/>
      <point x="68" y="425" type="curve" smooth="yes"/>
      <point x="83" y="422" type="line" smooth="yes"/>
      <point x="109" y="417"/>
      <point x="119" y="474"/>
      <point x="99" y="480" type="curve" smooth="yes"/>
    </contour>
    <contour>
      <point x="318" y="73" type="curve"/>
      <point x="333" y="69"/>
      <point x="366" y="68"/>
      <point x="391" y="79" type="curve"/>
      <point x="377" y="73"/>
      <point x="371" y="72"/>
      <point x="355" y="71" type="curve" smooth="yes"/>
      <point x="336" y="70"/>
      <point x="329" y="70"/>
    </contour>
    <contour>
      <point x="238" y="157" type="curve"/>
      <point x="242" y="141"/>
      <point x="256" y="112"/>
      <point x="277" y="95" type="curve"/>
      <point x="265" y="104"/>
      <point x="261" y="110"/>
      <point x="253" y="123" type="curve" smooth="yes"/>
      <point x="243" y="139"/>
      <point x="241" y="146"/>
    </contour>
    <contour>
      <point x="224" y="397" type="curve"/>
      <point x="222" y="376"/>
      <point x="220" y="353"/>
      <point x="220" y="333" type="curve"/>
      <point x="130" y="324"/>
      <point x="100" y="331"/>
      <point x="98" y="359" type="curve" smooth="yes"/>
      <point x="96" y="391"/>
      <point x="129" y="400"/>
    </contour>
    <contour>
      <point x="248" y="509" type="curve"/>
      <point x="242" y="489"/>
      <point x="235" y="469"/>
      <point x="232" y="449" type="curve"/>
      <point x="145" y="462"/>
      <point x="126" y="484"/>
      <point x="134" y="507" type="curve" smooth="yes"/>
      <point x="141" y="528"/>
      <point x="181" y="533"/>
    </contour>
    <contour>
      <point x="453" y="594" type="curve"/>
      <point x="437" y="609"/>
      <point x="412" y="623"/>
      <point x="394" y="624" type="curve"/>
      <point x="402" y="624"/>
      <point x="408" y="623"/>
      <point x="426" y="614" type="curve" smooth="yes"/>
      <point x="442" y="606"/>
      <point x="445" y="603"/>
    </contour>
    <contour>
      <point x="361" y="627" type="curve"/>
      <point x="337" y="626"/>
      <point x="313" y="610"/>
      <point x="304" y="601" type="curve"/>
      <point x="309" y="605"/>
      <point x="314" y="608"/>
      <point x="331" y="617" type="curve" smooth="yes"/>
      <point x="341" y="622"/>
      <point x="350" y="625"/>
    </contour>
  </outline>
</glyph>
<glyph name="colon" format="2">
  <advance width="276"/>
  <unicode hex="003A"/>
  <outline>
    <contour>
      <point x="134" y="25" type="curve" smooth="yes"/>
      <point x="197" y="25"/>
      <point x="238" y="65"/>
      <point x="238" y="125" type="curve" smooth="yes"/>
      <point x="238" y="188"/>
      <point x="204" y="235"/>
      <point x="139" y="235" type="curve" smooth="yes"/>
      <point x="77" y="235"/>
      <point x="37" y="194"/>
      <point x="37" y="124" type="curve" smooth="yes"/>
      <point x="37" y="64"/>
      <point x="73" y="25"/>
    </contour>
    <contour>
      <point x="143" y="343" type="curve" smooth="yes"/>
      <point x="196" y="343"/>
      <point x="237" y="387"/>
      <point x="237" y="454" type="curve" smooth="yes"/>
      <point x="237" y="519"/>
      <point x="202" y="566"/>
      <point x="139" y="566" type="curve" smooth="yes"/>
      <point x="83" y="566"/>
      <point x="45" y="520"/>
      <point x="45" y="449" type="curve" smooth="yes"/>
      <point x="45" y="387"/>
      <point x="87" y="343"/>
    </contour>
    <contour>
      <point x="144" y="454" type="curve" smooth="yes"/>
      <point x="144" y="454"/>
      <point x="144" y="454"/>
      <point x="144" y="454" type="curve" smooth="yes"/>
      <point x="144" y="454"/>
      <point x="144" y="454"/>
      <point x="144" y="454" type="curve" smooth="yes"/>
      <point x="144" y="454"/>
      <point x="144" y="454"/>
      <point x="144" y="454" type="curve" smooth="yes"/>
      <point x="144" y="454"/>
      <point x="144" y="454"/>
    </contour>
    <contour>
      <point x="130" y="92" type="curve" smooth="yes"/>
      <point x="105" y="92"/>
      <point x="86" y="111"/>
      <point x="86" y="135" type="curve" smooth="yes"/>
      <point x="86" y="158"/>
      <point x="105" y="177"/>
      <point x="130" y="177" type="curve" smooth="yes"/>
      <point x="154" y="177"/>
      <point x="175" y="158"/>
      <point x="175" y="135" type="curve" smooth="yes"/>
      <point x="175" y="111"/>
      <point x="154" y="92"/>
    </contour>
  </outline>
</glyph>
<glyph name="less" format="2">
  <advance width="381"/>
  <unicode hex="003C"/>
  <outline>
    <contour>
      <point x="260" y="84" type="curve" smooth="yes"/>
      <point x="283" y="60"/>
      <point x="310" y="51"/>
      <point x="331" y="69" type="curve" smooth="yes"/>
      <point x="347" y="83"/>
      <point x="349" y="107"/>
      <point x="324" y="139" type="curve" smooth="yes"/>
      <point x="270" y="209"/>
      <point x="200" y="294"/>
      <point x="153" y="356" type="curve" smooth="yes"/>
      <point x="138" y="376"/>
      <point x="143" y="398"/>
      <point x="167" y="408" type="curve" smooth="yes"/>
      <point x="201" y="422"/>
      <point x="250" y="438"/>
      <point x="296" y="455" type="curve" smooth="yes"/>
      <point x="334" y="469"/>
      <point x="356" y="503"/>
      <point x="337" y="538" type="curve" smooth="yes"/>
      <point x="315" y="579"/>
      <point x="272" y="572"/>
      <point x="235" y="550" type="curve" smooth="yes"/>
      <point x="198" y="527"/>
      <point x="128" y="481"/>
      <point x="79" y="447" type="curve" smooth="yes"/>
      <point x="27" y="411"/>
      <point x="20" y="346"/>
      <point x="69" y="289" type="curve" smooth="yes"/>
      <point x="116" y="235"/>
      <point x="190" y="155"/>
    </contour>
  </outline>
</glyph>
<glyph name="greater" format="2">
  <advance width="346"/>
  <unicode hex="003E"/>
  <outline>
    <contour>
      <point x="151" y="91" type="curve" smooth="yes"/>
      <point x="190" y="139"/>
      <point x="244" y="209"/>
      <point x="293" y="277" type="curve" smooth="yes"/>
      <point x="321" y="316"/>
      <point x="323" y="368"/>
      <point x="295" y="400" type="curve" smooth="yes"/>
      <point x="261" y="438"/>
      <point x="200" y="500"/>
      <point x="166" y="534" type="curve" smooth="yes"/>
      <point x="138" y="562"/>
      <point x="96" y="572"/>
      <point x="69" y="543" type="curve" smooth="yes"/>
      <point x="42" y="514"/>
      <point x="48" y="475"/>
      <point x="86" y="446" type="curve" smooth="yes"/>
      <point x="121" y="419"/>
      <point x="169" y="388"/>
      <point x="205" y="360" type="curve" smooth="yes"/>
      <point x="221" y="348"/>
      <point x="222" y="326"/>
      <point x="204" y="305" type="curve" smooth="yes"/>
      <point x="167" y="260"/>
      <point x="129" y="220"/>
      <point x="76" y="156" type="curve" smooth="yes"/>
      <point x="46" y="120"/>
      <point x="39" y="87"/>
      <point x="64" y="67" type="curve" smooth="yes"/>
      <point x="88" y="48"/>
      <point x="118" y="51"/>
    </contour>
  </outline>
</glyph>
<glyph name="at" format="2">
  <advance width="729"/>
  <unicode hex="0040"/>
  <outline>
    <contour>
      <point x="338" y="-83" type="curve" smooth="yes"/>
      <point x="415" y="-83"/>
      <point x="486" y="-69"/>
      <point x="531" y="-45" type="curve" smooth="yes"/>
      <point x="568" y="-25"/>
      <point x="576" y="4"/>
      <point x="560" y="30" type="curve" smooth="yes"/>
      <point x="544" y="56"/>
      <point x="524" y="55"/>
      <point x="489" y="35" type="curve" smooth="yes"/>
      <point x="452" y="13"/>
      <point x="396" y="2"/>
      <point x="331" y="2" type="curve" smooth="yes"/>
      <point x="208" y="2"/>
      <point x="117" y="101"/>
      <point x="117" y="312" type="curve" smooth="yes"/>
      <point x="117" y="590"/>
      <point x="230" y="679"/>
      <point x="381" y="679" type="curve" smooth="yes"/>
      <point x="524" y="679"/>
      <point x="613" y="585"/>
      <point x="613" y="422" type="curve" smooth="yes"/>
      <point x="613" y="285"/>
      <point x="601" y="199"/>
      <point x="558" y="199" type="curve" smooth="yes"/>
      <point x="527" y="199"/>
      <point x="516" y="222"/>
      <point x="518" y="283" type="curve" smooth="yes"/>
      <point x="520" y="338"/>
      <point x="520" y="393"/>
      <point x="518" y="448" type="curve" smooth="yes"/>
      <point x="515" y="520"/>
      <point x="471" y="563"/>
      <point x="390" y="563" type="curve" smooth="yes"/>
      <point x="274" y="563"/>
      <point x="204" y="470"/>
      <point x="204" y="319" type="curve" smooth="yes"/>
      <point x="204" y="184"/>
      <point x="271" y="131"/>
      <point x="340" y="131" type="curve" smooth="yes"/>
      <point x="386" y="131"/>
      <point x="421" y="144"/>
      <point x="449" y="177" type="curve" smooth="yes"/>
      <point x="453" y="182"/>
      <point x="457" y="182"/>
      <point x="460" y="177" type="curve" smooth="yes"/>
      <point x="482" y="139"/>
      <point x="516" y="119"/>
      <point x="552" y="119" type="curve" smooth="yes"/>
      <point x="635" y="119"/>
      <point x="702" y="207"/>
      <point x="702" y="446" type="curve" smooth="yes"/>
      <point x="702" y="685"/>
      <point x="587" y="799"/>
      <point x="376" y="799" type="curve" smooth="yes"/>
      <point x="192" y="799"/>
      <point x="32" y="677"/>
      <point x="32" y="311" type="curve" smooth="yes"/>
      <point x="32" y="84"/>
      <point x="132" y="-83"/>
    </contour>
    <contour>
      <point x="352" y="336" type="curve" smooth="yes"/>
      <point x="352" y="430"/>
      <point x="364" y="486"/>
      <point x="401" y="486" type="curve" smooth="yes"/>
      <point x="422" y="486"/>
      <point x="436" y="472"/>
      <point x="438" y="428" type="curve" smooth="yes"/>
      <point x="440" y="382"/>
      <point x="440" y="336"/>
      <point x="438" y="290" type="curve" smooth="yes"/>
      <point x="437" y="261"/>
      <point x="424" y="236"/>
      <point x="397" y="236" type="curve" smooth="yes"/>
      <point x="366" y="236"/>
      <point x="352" y="268"/>
    </contour>
    <contour>
      <point x="267" y="25" type="curve" smooth="yes"/>
      <point x="295" y="61"/>
      <point x="296" y="83"/>
      <point x="275" y="100" type="curve" smooth="yes"/>
      <point x="256" y="115"/>
      <point x="235" y="113"/>
      <point x="205" y="78" type="curve" smooth="yes"/>
      <point x="174" y="43"/>
      <point x="138" y="-1"/>
      <point x="99" y="-49" type="curve" smooth="yes"/>
      <point x="65" y="-91"/>
      <point x="64" y="-112"/>
      <point x="83" y="-129" type="curve" smooth="yes"/>
      <point x="104" y="-147"/>
      <point x="127" y="-139"/>
      <point x="157" y="-105" type="curve" smooth="yes"/>
      <point x="201" y="-53"/>
      <point x="238" y="-12"/>
    </contour>
    <contour>
      <point x="145" y="73" type="curve" smooth="yes"/>
      <point x="151" y="78"/>
      <point x="155" y="92"/>
      <point x="136" y="117" type="curve" smooth="yes"/>
      <point x="118" y="144"/>
      <point x="107" y="146"/>
      <point x="97" y="140" type="curve" smooth="yes"/>
      <point x="94" y="138"/>
      <point x="90" y="136"/>
      <point x="87" y="133" type="curve" smooth="yes"/>
      <point x="79" y="126"/>
      <point x="72" y="113"/>
      <point x="92" y="85" type="curve" smooth="yes"/>
      <point x="114" y="55"/>
      <point x="127" y="59"/>
      <point x="135" y="65" type="curve" smooth="yes"/>
      <point x="139" y="68"/>
      <point x="141" y="70"/>
    </contour>
    <contour>
      <point x="285" y="336" type="curve" smooth="yes"/>
      <point x="264" y="336"/>
      <point x="248" y="351"/>
      <point x="248" y="372" type="curve" smooth="yes"/>
      <point x="248" y="392"/>
      <point x="264" y="406"/>
      <point x="285" y="406" type="curve" smooth="yes"/>
      <point x="306" y="406"/>
      <point x="321" y="392"/>
      <point x="321" y="372" type="curve" smooth="yes"/>
      <point x="321" y="351"/>
      <point x="306" y="336"/>
    </contour>
    <contour>
      <point x="285" y="238" type="curve" smooth="yes"/>
      <point x="267" y="238"/>
      <point x="251" y="252"/>
      <point x="251" y="272" type="curve" smooth="yes"/>
      <point x="251" y="292"/>
      <point x="265" y="306"/>
      <point x="285" y="306" type="curve" smooth="yes"/>
      <point x="305" y="306"/>
      <point x="319" y="292"/>
      <point x="319" y="272" type="curve" smooth="yes"/>
      <point x="319" y="252"/>
      <point x="304" y="238"/>
    </contour>
    <contour>
      <point x="455" y="-41" type="curve" smooth="yes"/>
      <point x="451" y="-23"/>
      <point x="443" y="-3"/>
      <point x="407" y="-8" type="curve" smooth="yes"/>
      <point x="381" y="-12"/>
      <point x="373" y="-36"/>
      <point x="378" y="-60" type="curve" smooth="yes"/>
      <point x="381" y="-80"/>
      <point x="395" y="-150"/>
      <point x="400" y="-174" type="curve" smooth="yes"/>
      <point x="411" y="-226"/>
      <point x="424" y="-239"/>
      <point x="450" y="-236" type="curve" smooth="yes"/>
      <point x="479" y="-231"/>
      <point x="486" y="-209"/>
      <point x="478" y="-163" type="curve" smooth="yes"/>
      <point x="472" y="-128"/>
      <point x="460" y="-63"/>
    </contour>
  </outline>
</glyph>
<glyph name="B" format="2">
  <advance width="568"/>
  <unicode hex="0042"/>
  <unicode hex="0062"/>
  <anchor x="278" y="0" name="bottom"/>
  <anchor x="275" y="733" name="top"/>
  <outline>
    <contour>
      <point x="62" y="125" type="curve" smooth="yes"/>
      <point x="63" y="33"/>
      <point x="103" y="-12"/>
      <point x="258" y="-12" type="curve" smooth="yes"/>
      <point x="427" y="-12"/>
      <point x="540" y="66"/>
      <point x="540" y="210" type="curve" smooth="yes"/>
      <point x="540" y="331"/>
      <point x="464" y="378"/>
      <point x="376" y="398" type="curve" smooth="yes"/>
      <point x="367" y="400"/>
      <point x="363" y="402"/>
      <point x="363" y="409" type="curve" smooth="yes"/>
      <point x="363" y="428"/>
      <point x="444" y="422"/>
      <point x="444" y="532" type="curve" smooth="yes"/>
      <point x="444" y="617"/>
      <point x="359" y="648"/>
      <point x="265" y="651" type="curve" smooth="yes"/>
      <point x="140" y="655"/>
      <point x="103" y="650"/>
      <point x="87" y="632" type="curve" smooth="yes"/>
      <point x="75" y="619"/>
      <point x="68" y="601"/>
      <point x="67" y="575" type="curve" smooth="yes"/>
      <point x="62" y="425"/>
      <point x="61" y="275"/>
    </contour>
    <contour>
      <point x="215" y="585" type="curve" smooth="yes"/>
      <point x="331" y="585"/>
      <point x="367" y="579"/>
      <point x="367" y="522" type="curve" smooth="yes"/>
      <point x="367" y="471"/>
      <point x="299" y="449"/>
      <point x="216" y="440" type="curve" smooth="yes"/>
      <point x="177" y="436"/>
      <point x="166" y="445"/>
      <point x="154" y="497" type="curve" smooth="yes"/>
      <point x="138" y="568"/>
      <point x="148" y="585"/>
    </contour>
    <contour>
      <point x="143" y="181" type="curve" smooth="yes"/>
      <point x="143" y="288"/>
      <point x="164" y="327"/>
      <point x="211" y="329" type="curve" smooth="yes"/>
      <point x="264" y="332"/>
      <point x="301" y="311"/>
      <point x="331" y="217" type="curve" smooth="yes"/>
      <point x="369" y="98"/>
      <point x="349" y="52"/>
      <point x="241" y="52" type="curve" smooth="yes"/>
      <point x="146" y="52"/>
      <point x="143" y="78"/>
    </contour>
    <contour>
      <point x="370" y="295" type="curve" smooth="yes"/>
      <point x="353" y="295"/>
      <point x="338" y="310"/>
      <point x="338" y="327" type="curve" smooth="yes"/>
      <point x="338" y="344"/>
      <point x="353" y="359"/>
      <point x="370" y="359" type="curve" smooth="yes"/>
      <point x="387" y="359"/>
      <point x="402" y="344"/>
      <point x="402" y="327" type="curve" smooth="yes"/>
      <point x="402" y="310"/>
      <point x="387" y="295"/>
    </contour>
    <contour>
      <point x="445" y="198" type="curve" smooth="yes"/>
      <point x="421" y="198"/>
      <point x="404" y="215"/>
      <point x="404" y="238" type="curve" smooth="yes"/>
      <point x="404" y="259"/>
      <point x="421" y="277"/>
      <point x="445" y="277" type="curve" smooth="yes"/>
      <point x="468" y="277"/>
      <point x="485" y="259"/>
      <point x="485" y="238" type="curve" smooth="yes"/>
      <point x="485" y="215"/>
      <point x="468" y="198"/>
    </contour>
    <contour>
      <point x="432" y="93" type="curve" smooth="yes"/>
      <point x="415" y="93"/>
      <point x="400" y="108"/>
      <point x="400" y="125" type="curve" smooth="yes"/>
      <point x="400" y="142"/>
      <point x="415" y="157"/>
      <point x="432" y="157" type="curve" smooth="yes"/>
      <point x="449" y="157"/>
      <point x="464" y="142"/>
      <point x="464" y="125" type="curve" smooth="yes"/>
      <point x="464" y="108"/>
      <point x="449" y="93"/>
    </contour>
    <contour>
      <point x="159" y="632" type="line"/>
      <point x="109" y="766"/>
      <point x="95" y="784"/>
      <point x="60" y="770" type="curve" smooth="yes"/>
      <point x="26" y="756"/>
      <point x="32" y="727"/>
      <point x="98" y="608" type="curve"/>
    </contour>
    <contour>
      <point x="192" y="604" type="line"/>
      <point x="197" y="629"/>
      <point x="185" y="644"/>
      <point x="160" y="644" type="curve" smooth="yes"/>
      <point x="140" y="644"/>
      <point x="136" y="633"/>
      <point x="136" y="611" type="curve"/>
    </contour>
    <contour>
      <point x="269" y="634" type="line"/>
      <point x="270" y="782"/>
      <point x="264" y="803"/>
      <point x="231" y="803" type="curve" smooth="yes"/>
      <point x="196" y="803"/>
      <point x="186" y="787"/>
      <point x="200" y="629" type="curve"/>
    </contour>
    <contour>
      <point x="370" y="611" type="line"/>
      <point x="432" y="733"/>
      <point x="440" y="760"/>
      <point x="409" y="775" type="curve" smooth="yes"/>
      <point x="363" y="796"/>
      <point x="350" y="766"/>
      <point x="310" y="625" type="curve"/>
    </contour>
    <contour>
      <point x="495" y="572" type="curve" smooth="yes"/>
      <point x="523" y="584"/>
      <point x="530" y="603"/>
      <point x="526" y="620" type="curve" smooth="yes"/>
      <point x="521" y="642"/>
      <point x="501" y="658"/>
      <point x="468" y="642" type="curve" smooth="yes"/>
      <point x="447" y="632"/>
      <point x="417" y="616"/>
      <point x="399" y="604" type="curve" smooth="yes"/>
      <point x="377" y="589"/>
      <point x="377" y="571"/>
      <point x="385" y="556" type="curve" smooth="yes"/>
      <point x="391" y="545"/>
      <point x="402" y="538"/>
      <point x="423" y="545" type="curve" smooth="yes"/>
      <point x="446" y="553"/>
      <point x="476" y="564"/>
    </contour>
    <contour>
      <point x="397" y="457" type="line"/>
      <point x="476" y="413"/>
      <point x="497" y="401"/>
      <point x="515" y="427" type="curve" smooth="yes"/>
      <point x="536" y="459"/>
      <point x="522" y="472"/>
      <point x="425" y="512" type="curve"/>
    </contour>
    <contour>
      <point x="248" y="103" type="curve" smooth="yes"/>
      <point x="261" y="132"/>
      <point x="270" y="159"/>
      <point x="254" y="172" type="curve" smooth="yes"/>
      <point x="241" y="182"/>
      <point x="219" y="180"/>
      <point x="207" y="160" type="curve" smooth="yes"/>
      <point x="169" y="96"/>
      <point x="115" y="5"/>
      <point x="83" y="-52" type="curve" smooth="yes"/>
      <point x="64" y="-84"/>
      <point x="75" y="-109"/>
      <point x="100" y="-118" type="curve" smooth="yes"/>
      <point x="123" y="-125"/>
      <point x="138" y="-120"/>
      <point x="154" y="-89" type="curve" smooth="yes"/>
      <point x="186" y="-28"/>
      <point x="219" y="41"/>
    </contour>
  </outline>
</glyph>
<glyph name="C" format="2">
  <advance width="514"/>
  <unicode hex="0043"/>
  <unicode hex="0063"/>
  <anchor x="211" y="-75" name="bottom"/>
  <anchor x="226" y="0" name="cedilla"/>
  <anchor x="305" y="711" name="top"/>
  <outline>
    <contour>
      <point x="304" y="-18" type="curve" smooth="yes"/>
      <point x="386" y="-18"/>
      <point x="450" y="15"/>
      <point x="491" y="67" type="curve" smooth="yes"/>
      <point x="535" y="122"/>
      <point x="471" y="167"/>
      <point x="438" y="122" type="curve" smooth="yes"/>
      <point x="435" y="118"/>
      <point x="431" y="114"/>
      <point x="428" y="111" type="curve" smooth="yes"/>
      <point x="421" y="104"/>
      <point x="413" y="97"/>
      <point x="404" y="91" type="curve" smooth="yes"/>
      <point x="398" y="87"/>
      <point x="391" y="82"/>
      <point x="386" y="79" type="curve" smooth="yes"/>
      <point x="381" y="76"/>
      <point x="379" y="75"/>
      <point x="371" y="72" type="curve" smooth="yes"/>
      <point x="363" y="69"/>
      <point x="355" y="66"/>
      <point x="344" y="64" type="curve" smooth="yes"/>
      <point x="335" y="62"/>
      <point x="326" y="60"/>
      <point x="316" y="60" type="curve" smooth="yes"/>
      <point x="313" y="60"/>
      <point x="310" y="60"/>
      <point x="307" y="60" type="curve" smooth="yes"/>
      <point x="217" y="60"/>
      <point x="140" y="151"/>
      <point x="140" y="308" type="curve" smooth="yes"/>
      <point x="140" y="417"/>
      <point x="192" y="483"/>
      <point x="246" y="496" type="curve"/>
      <point x="241" y="589"/>
      <point x="253" y="606"/>
      <point x="275" y="607" type="curve" smooth="yes"/>
      <point x="300" y="608"/>
      <point x="308" y="593"/>
      <point x="304" y="496" type="curve"/>
      <point x="319" y="496"/>
      <point x="345" y="494"/>
      <point x="360" y="492" type="curve"/>
      <point x="371" y="612"/>
      <point x="388" y="631"/>
      <point x="410" y="628" type="curve" smooth="yes"/>
      <point x="432" y="625"/>
      <point x="441" y="606"/>
      <point x="413" y="485" type="curve"/>
      <point x="422" y="483"/>
      <point x="430" y="483"/>
      <point x="440" y="483" type="curve" smooth="yes"/>
      <point x="485" y="483"/>
      <point x="511" y="531"/>
      <point x="511" y="590" type="curve" smooth="yes"/>
      <point x="511" y="676"/>
      <point x="446" y="707"/>
      <point x="364" y="707" type="curve" smooth="yes"/>
      <point x="190" y="707"/>
      <point x="49" y="556"/>
      <point x="49" y="318" type="curve" smooth="yes"/>
      <point x="49" y="93"/>
      <point x="151" y="-18"/>
    </contour>
    <contour>
      <point x="287" y="678" type="curve" smooth="yes"/>
      <point x="283" y="685"/>
      <point x="269" y="687"/>
      <point x="243" y="675" type="curve" smooth="yes"/>
      <point x="223" y="666"/>
      <point x="216" y="656"/>
      <point x="224" y="640" type="curve" smooth="yes"/>
      <point x="226" y="636"/>
      <point x="230" y="630"/>
      <point x="234" y="625" type="curve" smooth="yes"/>
      <point x="239" y="618"/>
      <point x="249" y="617"/>
      <point x="270" y="628" type="curve" smooth="yes"/>
      <point x="294" y="640"/>
      <point x="299" y="648"/>
      <point x="296" y="657" type="curve" smooth="yes"/>
      <point x="293" y="665"/>
      <point x="290" y="672"/>
    </contour>
    <contour>
      <point x="21" y="192" type="curve" smooth="yes"/>
      <point x="-6" y="180"/>
      <point x="-18" y="158"/>
      <point x="-7" y="133" type="curve" smooth="yes"/>
      <point x="4" y="107"/>
      <point x="25" y="101"/>
      <point x="60" y="118" type="curve" smooth="yes"/>
      <point x="110" y="143"/>
      <point x="165" y="174"/>
      <point x="218" y="205" type="curve" smooth="yes"/>
      <point x="239" y="218"/>
      <point x="245" y="235"/>
      <point x="235" y="252" type="curve" smooth="yes"/>
      <point x="227" y="267"/>
      <point x="209" y="271"/>
      <point x="187" y="262" type="curve" smooth="yes"/>
      <point x="131" y="240"/>
      <point x="74" y="215"/>
    </contour>
    <contour>
      <point x="333" y="242" type="curve" smooth="yes"/>
      <point x="361" y="242"/>
      <point x="385" y="266"/>
      <point x="385" y="296" type="curve" smooth="yes"/>
      <point x="385" y="324"/>
      <point x="361" y="348"/>
      <point x="333" y="348" type="curve" smooth="yes"/>
      <point x="303" y="348"/>
      <point x="279" y="324"/>
      <point x="279" y="296" type="curve" smooth="yes"/>
      <point x="279" y="266"/>
      <point x="303" y="242"/>
    </contour>
    <contour>
      <point x="434" y="76" type="curve" smooth="yes"/>
      <point x="426" y="85"/>
      <point x="419" y="84"/>
      <point x="403" y="76" type="curve" smooth="yes"/>
      <point x="386" y="68"/>
      <point x="379" y="56"/>
      <point x="383" y="45" type="curve" smooth="yes"/>
      <point x="384" y="42"/>
      <point x="386" y="38"/>
      <point x="388" y="35" type="curve" smooth="yes"/>
      <point x="396" y="22"/>
      <point x="412" y="19"/>
      <point x="429" y="28" type="curve" smooth="yes"/>
      <point x="444" y="36"/>
      <point x="450" y="46"/>
      <point x="444" y="59" type="curve" smooth="yes"/>
      <point x="442" y="64"/>
      <point x="438" y="71"/>
    </contour>
    <contour>
      <point x="372" y="7" type="curve" smooth="yes"/>
      <point x="369" y="28"/>
      <point x="351" y="37"/>
      <point x="333" y="36" type="curve" smooth="yes"/>
      <point x="316" y="34"/>
      <point x="301" y="23"/>
      <point x="301" y="5" type="curve" smooth="yes"/>
      <point x="302" y="-34"/>
      <point x="305" y="-69"/>
      <point x="308" y="-101" type="curve" smooth="yes"/>
      <point x="312" y="-135"/>
      <point x="324" y="-147"/>
      <point x="350" y="-145" type="curve" smooth="yes"/>
      <point x="374" y="-143"/>
      <point x="386" y="-131"/>
      <point x="384" y="-103" type="curve" smooth="yes"/>
      <point x="381" y="-65"/>
      <point x="377" y="-29"/>
    </contour>
  </outline>
</glyph>
<glyph name="F" format="2">
  <advance width="460"/>
  <unicode hex="0046"/>
  <unicode hex="0066"/>
  <anchor x="171" y="0" name="bottom"/>
  <anchor x="282" y="700" name="top"/>
  <outline>
    <contour>
      <point x="98" y="0" type="curve" smooth="yes"/>
      <point x="99" y="-26"/>
      <point x="116" y="-37"/>
      <point x="137" y="-37" type="curve" smooth="yes"/>
      <point x="157" y="-37"/>
      <point x="174" y="-26"/>
      <point x="176" y="0" type="curve" smooth="yes"/>
      <point x="181" y="59"/>
      <point x="178" y="123"/>
      <point x="183" y="181" type="curve" smooth="yes"/>
      <point x="185" y="208"/>
      <point x="199" y="215"/>
      <point x="227" y="206" type="curve" smooth="yes"/>
      <point x="255" y="197"/>
      <point x="278" y="183"/>
      <point x="307" y="173" type="curve" smooth="yes"/>
      <point x="364" y="154"/>
      <point x="385" y="225"/>
      <point x="339" y="245" type="curve" smooth="yes"/>
      <point x="307" y="259"/>
      <point x="276" y="264"/>
      <point x="247" y="276" type="curve" smooth="yes"/>
      <point x="221" y="287"/>
      <point x="224" y="309"/>
      <point x="252" y="312" type="curve" smooth="yes"/>
      <point x="300" y="318"/>
      <point x="347" y="317"/>
      <point x="399" y="323" type="curve" smooth="yes"/>
      <point x="446" y="329"/>
      <point x="449" y="401"/>
      <point x="392" y="398" type="curve" smooth="yes"/>
      <point x="348" y="396"/>
      <point x="304" y="387"/>
      <point x="260" y="384" type="curve" smooth="yes"/>
      <point x="229" y="382"/>
      <point x="224" y="391"/>
      <point x="224" y="414" type="curve" smooth="yes"/>
      <point x="224" y="431"/>
      <point x="224" y="447"/>
      <point x="226" y="464" type="curve" smooth="yes"/>
      <point x="228" y="481"/>
      <point x="232" y="492"/>
      <point x="240" y="501" type="curve" smooth="yes"/>
      <point x="248" y="509"/>
      <point x="259" y="515"/>
      <point x="276" y="522" type="curve" smooth="yes"/>
      <point x="315" y="538"/>
      <point x="358" y="546"/>
      <point x="408" y="566" type="curve" smooth="yes"/>
      <point x="441" y="578"/>
      <point x="469" y="594"/>
      <point x="469" y="632" type="curve" smooth="yes"/>
      <point x="469" y="659"/>
      <point x="448" y="681"/>
      <point x="401" y="687" type="curve" smooth="yes"/>
      <point x="320" y="698"/>
      <point x="226" y="702"/>
      <point x="128" y="698" type="curve" smooth="yes"/>
      <point x="82" y="696"/>
      <point x="63" y="682"/>
      <point x="63" y="640" type="curve" smooth="yes"/>
      <point x="63" y="627"/>
      <point x="63" y="614"/>
      <point x="65" y="601" type="curve"/>
      <point x="121" y="606"/>
      <point x="159" y="601"/>
      <point x="159" y="574" type="curve" smooth="yes"/>
      <point x="159" y="549"/>
      <point x="134" y="536"/>
      <point x="70" y="531" type="curve"/>
      <point x="70" y="514"/>
      <point x="71" y="496"/>
      <point x="73" y="479" type="curve"/>
      <point x="147" y="484"/>
      <point x="174" y="479"/>
      <point x="174" y="455" type="curve" smooth="yes"/>
      <point x="174" y="429"/>
      <point x="150" y="419"/>
      <point x="76" y="416" type="curve"/>
      <point x="83" y="277"/>
      <point x="91" y="139"/>
    </contour>
    <contour>
      <point x="144" y="647" type="curve" smooth="yes"/>
      <point x="144" y="647"/>
      <point x="144" y="647"/>
      <point x="144" y="647" type="curve" smooth="yes"/>
      <point x="144" y="647"/>
      <point x="144" y="647"/>
      <point x="144" y="647" type="curve" smooth="yes"/>
      <point x="144" y="647"/>
      <point x="144" y="647"/>
      <point x="144" y="647" type="curve" smooth="yes"/>
      <point x="144" y="647"/>
      <point x="144" y="647"/>
    </contour>
    <contour>
      <point x="199" y="604" type="curve" smooth="yes"/>
      <point x="199" y="604"/>
      <point x="199" y="604"/>
      <point x="199" y="604" type="curve" smooth="yes"/>
      <point x="199" y="604"/>
      <point x="199" y="604"/>
      <point x="199" y="604" type="curve" smooth="yes"/>
      <point x="199" y="604"/>
      <point x="199" y="604"/>
      <point x="199" y="604" type="curve" smooth="yes"/>
      <point x="199" y="604"/>
      <point x="199" y="604"/>
    </contour>
    <contour>
      <point x="264" y="570" type="curve" smooth="yes"/>
      <point x="241" y="570"/>
      <point x="223" y="588"/>
      <point x="223" y="611" type="curve" smooth="yes"/>
      <point x="223" y="634"/>
      <point x="241" y="652"/>
      <point x="264" y="652" type="curve" smooth="yes"/>
      <point x="287" y="652"/>
      <point x="305" y="634"/>
      <point x="305" y="611" type="curve" smooth="yes"/>
      <point x="305" y="588"/>
      <point x="287" y="570"/>
    </contour>
  </outline>
</glyph>
<glyph name="H" format="2">
  <advance width="608"/>
  <unicode hex="0048"/>
  <unicode hex="0068"/>
  <anchor x="251" y="-20" name="bottom"/>
  <anchor x="323" y="710" name="top"/>
  <outline>
    <contour>
      <point x="73" y="57" type="curve" smooth="yes"/>
      <point x="74" y="23"/>
      <point x="85" y="0"/>
      <point x="115" y="0" type="curve" smooth="yes"/>
      <point x="143" y="0"/>
      <point x="157" y="23"/>
      <point x="160" y="50" type="curve" smooth="yes"/>
      <point x="167" y="111"/>
      <point x="171" y="182"/>
      <point x="177" y="248" type="curve" smooth="yes"/>
      <point x="179" y="265"/>
      <point x="192" y="273"/>
      <point x="209" y="272" type="curve" smooth="yes"/>
      <point x="216" y="272"/>
      <point x="224" y="271"/>
      <point x="231" y="271" type="curve" smooth="yes"/>
      <point x="239" y="271"/>
      <point x="247" y="270"/>
      <point x="255" y="269" type="curve" smooth="yes"/>
      <point x="266" y="268"/>
      <point x="277" y="267"/>
      <point x="289" y="266" type="curve" smooth="yes"/>
      <point x="302" y="265"/>
      <point x="314" y="264"/>
      <point x="327" y="263" type="curve" smooth="yes"/>
      <point x="336" y="262"/>
      <point x="344" y="261"/>
      <point x="353" y="260" type="curve" smooth="yes"/>
      <point x="364" y="259"/>
      <point x="375" y="258"/>
      <point x="385" y="257" type="curve" smooth="yes"/>
      <point x="393" y="256"/>
      <point x="400" y="255"/>
      <point x="408" y="254" type="curve" smooth="yes"/>
      <point x="420" y="252"/>
      <point x="424" y="246"/>
      <point x="424" y="232" type="curve" smooth="yes"/>
      <point x="422" y="163"/>
      <point x="416" y="96"/>
      <point x="414" y="26" type="curve" smooth="yes"/>
      <point x="413" y="-15"/>
      <point x="429" y="-42"/>
      <point x="467" y="-42" type="curve" smooth="yes"/>
      <point x="504" y="-42"/>
      <point x="518" y="-18"/>
      <point x="519" y="22" type="curve" smooth="yes"/>
      <point x="524" y="232"/>
      <point x="526" y="443"/>
      <point x="525" y="645" type="curve" smooth="yes"/>
      <point x="525" y="686"/>
      <point x="515" y="707"/>
      <point x="485" y="707" type="curve" smooth="yes"/>
      <point x="456" y="707"/>
      <point x="445" y="685"/>
      <point x="443" y="650" type="curve" smooth="yes"/>
      <point x="438" y="559"/>
      <point x="435" y="460"/>
      <point x="430" y="359" type="curve" smooth="yes"/>
      <point x="429" y="338"/>
      <point x="424" y="336"/>
      <point x="407" y="337" type="curve" smooth="yes"/>
      <point x="355" y="339"/>
      <point x="305" y="343"/>
      <point x="255" y="351" type="curve" smooth="yes"/>
      <point x="237" y="354"/>
      <point x="233" y="361"/>
      <point x="234" y="380" type="curve" smooth="yes"/>
      <point x="238" y="447"/>
      <point x="247" y="512"/>
      <point x="251" y="578" type="curve" smooth="yes"/>
      <point x="256" y="654"/>
      <point x="226" y="695"/>
      <point x="165" y="695" type="curve" smooth="yes"/>
      <point x="93" y="695"/>
      <point x="67" y="660"/>
      <point x="67" y="587" type="curve" smooth="yes"/>
      <point x="67" y="583"/>
      <point x="67" y="579"/>
      <point x="67" y="575" type="curve"/>
      <point x="152" y="580"/>
      <point x="177" y="573"/>
      <point x="177" y="547" type="curve" smooth="yes"/>
      <point x="177" y="522"/>
      <point x="156" y="509"/>
      <point x="67" y="511" type="curve"/>
      <point x="67" y="495"/>
      <point x="67" y="478"/>
      <point x="67" y="462" type="curve"/>
      <point x="128" y="464"/>
      <point x="148" y="455"/>
      <point x="148" y="431" type="curve" smooth="yes"/>
      <point x="148" y="407"/>
      <point x="126" y="397"/>
      <point x="68" y="401" type="curve"/>
      <point x="69" y="287"/>
      <point x="70" y="169"/>
    </contour>
    <contour>
      <point x="192" y="299" type="curve" smooth="yes"/>
      <point x="204" y="299"/>
      <point x="217" y="310"/>
      <point x="217" y="324" type="curve" smooth="yes"/>
      <point x="217" y="336"/>
      <point x="204" y="349"/>
      <point x="192" y="349" type="curve" smooth="yes"/>
      <point x="178" y="349"/>
      <point x="167" y="336"/>
      <point x="167" y="324" type="curve" smooth="yes"/>
      <point x="167" y="310"/>
      <point x="178" y="299"/>
    </contour>
    <contour>
      <point x="546" y="488" type="curve" smooth="yes"/>
      <point x="498" y="490"/>
      <point x="452" y="490"/>
      <point x="402" y="490" type="curve" smooth="yes"/>
      <point x="362" y="490"/>
      <point x="340" y="480"/>
      <point x="340" y="455" type="curve" smooth="yes"/>
      <point x="340" y="430"/>
      <point x="356" y="418"/>
      <point x="401" y="418" type="curve" smooth="yes"/>
      <point x="453" y="418"/>
      <point x="507" y="420"/>
      <point x="544" y="422" type="curve" smooth="yes"/>
      <point x="577" y="425"/>
      <point x="599" y="431"/>
      <point x="599" y="453" type="curve" smooth="yes"/>
      <point x="599" y="477"/>
      <point x="579" y="486"/>
    </contour>
    <contour>
      <point x="300" y="49" type="curve" smooth="yes"/>
      <point x="332" y="49"/>
      <point x="358" y="75"/>
      <point x="358" y="107" type="curve" smooth="yes"/>
      <point x="358" y="139"/>
      <point x="332" y="165"/>
      <point x="300" y="165" type="curve" smooth="yes"/>
      <point x="268" y="165"/>
      <point x="242" y="139"/>
      <point x="242" y="107" type="curve" smooth="yes"/>
      <point x="242" y="75"/>
      <point x="268" y="49"/>
    </contour>
    <contour>
      <point x="536" y="634" type="curve" smooth="yes"/>
      <point x="491" y="637"/>
      <point x="447" y="639"/>
      <point x="402" y="640" type="curve" smooth="yes"/>
      <point x="358" y="641"/>
      <point x="339" y="633"/>
      <point x="339" y="611" type="curve" smooth="yes"/>
      <point x="339" y="590"/>
      <point x="356" y="580"/>
      <point x="397" y="576" type="curve" smooth="yes"/>
      <point x="442" y="572"/>
      <point x="487" y="568"/>
      <point x="532" y="566" type="curve" smooth="yes"/>
      <point x="574" y="564"/>
      <point x="600" y="570"/>
      <point x="600" y="597" type="curve" smooth="yes"/>
      <point x="600" y="621"/>
      <point x="579" y="631"/>
    </contour>
  </outline>
</glyph>
<glyph name="L" format="2">
  <advance width="504"/>
  <unicode hex="004C"/>
  <unicode hex="006C"/>
  <anchor x="264" y="-13" name="bottom"/>
  <anchor x="191" y="702" name="top"/>
  <outline>
    <contour>
      <point x="174" y="-24" type="curve" smooth="yes"/>
      <point x="184" y="-24"/>
      <point x="193" y="-24"/>
      <point x="203" y="-23" type="curve"/>
      <point x="191" y="94"/>
      <point x="203" y="119"/>
      <point x="230" y="119" type="curve" smooth="yes"/>
      <point x="253" y="119"/>
      <point x="266" y="100"/>
      <point x="266" y="-22" type="curve"/>
      <point x="287" y="-22"/>
      <point x="309" y="-21"/>
      <point x="330" y="-20" type="curve"/>
      <point x="330" y="64"/>
      <point x="335" y="88"/>
      <point x="361" y="88" type="curve" smooth="yes"/>
      <point x="384" y="88"/>
      <point x="394" y="66"/>
      <point x="385" y="-17" type="curve"/>
      <point x="401" y="-16"/>
      <point x="417" y="-14"/>
      <point x="434" y="-13" type="curve" smooth="yes"/>
      <point x="479" y="-10"/>
      <point x="502" y="14"/>
      <point x="502" y="48" type="curve" smooth="yes"/>
      <point x="502" y="88"/>
      <point x="479" y="106"/>
      <point x="430" y="131" type="curve" smooth="yes"/>
      <point x="378" y="157"/>
      <point x="322" y="179"/>
      <point x="276" y="202" type="curve" smooth="yes"/>
      <point x="246" y="217"/>
      <point x="233" y="235"/>
      <point x="231" y="277" type="curve" smooth="yes"/>
      <point x="231" y="285"/>
      <point x="230" y="294"/>
      <point x="230" y="302" type="curve" smooth="yes"/>
      <point x="230" y="312"/>
      <point x="229" y="322"/>
      <point x="229" y="332" type="curve" smooth="yes"/>
      <point x="229" y="344"/>
      <point x="229" y="357"/>
      <point x="228" y="370" type="curve" smooth="yes"/>
      <point x="228" y="378"/>
      <point x="228" y="386"/>
      <point x="228" y="395" type="curve" smooth="yes"/>
      <point x="228" y="405"/>
      <point x="228" y="416"/>
      <point x="228" y="427" type="curve" smooth="yes"/>
      <point x="227" y="438"/>
      <point x="227" y="451"/>
      <point x="227" y="463" type="curve" smooth="yes"/>
      <point x="226" y="514"/>
      <point x="225" y="575"/>
      <point x="221" y="653" type="curve" smooth="yes"/>
      <point x="219" y="691"/>
      <point x="211" y="710"/>
      <point x="186" y="710" type="curve" smooth="yes"/>
      <point x="164" y="710"/>
      <point x="153" y="693"/>
      <point x="149" y="659" type="curve" smooth="yes"/>
      <point x="125" y="466"/>
      <point x="104" y="273"/>
      <point x="89" y="85" type="curve" smooth="yes"/>
      <point x="82" y="8"/>
      <point x="99" y="-24"/>
    </contour>
    <contour>
      <point x="141" y="246" type="curve"/>
      <point x="146" y="318" type="line"/>
      <point x="42" y="325"/>
      <point x="12" y="319"/>
      <point x="12" y="283" type="curve" smooth="yes"/>
      <point x="12" y="247"/>
      <point x="38" y="244"/>
    </contour>
    <contour>
      <point x="190" y="512" type="line"/>
      <point x="318" y="510"/>
      <point x="348" y="513"/>
      <point x="348" y="550" type="curve" smooth="yes"/>
      <point x="348" y="583"/>
      <point x="321" y="587"/>
      <point x="190" y="588" type="curve"/>
    </contour>
    <contour>
      <point x="186" y="644" type="curve" smooth="yes"/>
      <point x="186" y="644"/>
      <point x="186" y="644"/>
      <point x="186" y="644" type="curve" smooth="yes"/>
      <point x="186" y="644"/>
      <point x="186" y="644"/>
      <point x="186" y="644" type="curve" smooth="yes"/>
      <point x="186" y="644"/>
      <point x="186" y="644"/>
      <point x="186" y="644" type="curve" smooth="yes"/>
      <point x="186" y="644"/>
      <point x="186" y="644"/>
    </contour>
    <contour>
      <point x="424" y="16" type="curve" smooth="yes"/>
      <point x="438" y="15"/>
      <point x="453" y="22"/>
      <point x="456" y="39" type="curve" smooth="yes"/>
      <point x="457" y="46"/>
      <point x="458" y="53"/>
      <point x="458" y="59" type="curve" smooth="yes"/>
      <point x="460" y="83"/>
      <point x="453" y="98"/>
      <point x="426" y="96" type="curve" smooth="yes"/>
      <point x="408" y="95"/>
      <point x="402" y="86"/>
      <point x="399" y="67" type="curve" smooth="yes"/>
      <point x="399" y="62"/>
      <point x="398" y="57"/>
      <point x="398" y="51" type="curve" smooth="yes"/>
      <point x="397" y="29"/>
      <point x="410" y="17"/>
    </contour>
    <contour>
      <point x="199" y="437" type="line"/>
      <point x="214" y="437"/>
      <point x="221" y="444"/>
      <point x="221" y="468" type="curve" smooth="yes"/>
      <point x="221" y="493"/>
      <point x="213" y="501"/>
      <point x="198" y="501" type="curve"/>
    </contour>
  </outline>
</glyph>
<glyph name="R" format="2">
  <advance width="602"/>
  <unicode hex="0052"/>
  <unicode hex="0072"/>
  <guideline x="322" y="202" angle="150.6422"/>
  <anchor x="278" y="40" name="bottom"/>
  <anchor x="314" y="719" name="top"/>
  <outline>
    <contour>
      <point x="72" y="50" type="curve" smooth="yes"/>
      <point x="76" y="15"/>
      <point x="84" y="-2"/>
      <point x="108" y="-2" type="curve" smooth="yes"/>
      <point x="129" y="-2"/>
      <point x="137" y="13"/>
      <point x="144" y="42" type="curve" smooth="yes"/>
      <point x="150" y="70"/>
      <point x="152" y="118"/>
      <point x="161" y="160" type="curve" smooth="yes"/>
      <point x="167" y="191"/>
      <point x="186" y="199"/>
      <point x="222" y="175" type="curve" smooth="yes"/>
      <point x="465" y="13"/>
      <point x="498" y="-4"/>
      <point x="530" y="-4" type="curve" smooth="yes"/>
      <point x="559" y="-4"/>
      <point x="576" y="17"/>
      <point x="576" y="40" type="curve" smooth="yes"/>
      <point x="576" y="92"/>
      <point x="542" y="110"/>
      <point x="390" y="183" type="curve" smooth="yes"/>
      <point x="381" y="187"/>
      <point x="373" y="191"/>
      <point x="364" y="195" type="curve" smooth="yes"/>
      <point x="357" y="199"/>
      <point x="349" y="202"/>
      <point x="342" y="206" type="curve" smooth="yes"/>
      <point x="334" y="210"/>
      <point x="326" y="213"/>
      <point x="318" y="217" type="curve" smooth="yes"/>
      <point x="308" y="221"/>
      <point x="298" y="226"/>
      <point x="289" y="231" type="curve" smooth="yes"/>
      <point x="281" y="234"/>
      <point x="273" y="238"/>
      <point x="266" y="241" type="curve" smooth="yes"/>
      <point x="246" y="251"/>
      <point x="229" y="260"/>
      <point x="217" y="267" type="curve" smooth="yes"/>
      <point x="185" y="287"/>
      <point x="179" y="299"/>
      <point x="206" y="443" type="curve" smooth="yes"/>
      <point x="230" y="566"/>
      <point x="292" y="637"/>
      <point x="382" y="637" type="curve" smooth="yes"/>
      <point x="460" y="637"/>
      <point x="506" y="584"/>
      <point x="506" y="507" type="curve" smooth="yes"/>
      <point x="506" y="438"/>
      <point x="468" y="391"/>
      <point x="407" y="391" type="curve" smooth="yes"/>
      <point x="372" y="391"/>
      <point x="348" y="417"/>
      <point x="348" y="452" type="curve" smooth="yes"/>
      <point x="348" y="473"/>
      <point x="358" y="492"/>
      <point x="379" y="492" type="curve" smooth="yes"/>
      <point x="414" y="492"/>
      <point x="408" y="458"/>
      <point x="435" y="458" type="curve" smooth="yes"/>
      <point x="453" y="458"/>
      <point x="462" y="470"/>
      <point x="462" y="488" type="curve" smooth="yes"/>
      <point x="462" y="524"/>
      <point x="429" y="556"/>
      <point x="377" y="556" type="curve" smooth="yes"/>
      <point x="317" y="556"/>
      <point x="272" y="512"/>
      <point x="272" y="445" type="curve" smooth="yes"/>
      <point x="272" y="374"/>
      <point x="317" y="325"/>
      <point x="403" y="325" type="curve" smooth="yes"/>
      <point x="508" y="325"/>
      <point x="581" y="401"/>
      <point x="581" y="512" type="curve" smooth="yes"/>
      <point x="581" y="646"/>
      <point x="491" y="728"/>
      <point x="302" y="728" type="curve" smooth="yes"/>
      <point x="268" y="728"/>
      <point x="213" y="720"/>
      <point x="186" y="708" type="curve"/>
      <point x="214" y="672"/>
      <point x="227" y="630"/>
      <point x="206" y="615" type="curve" smooth="yes"/>
      <point x="184" y="598"/>
      <point x="162" y="610"/>
      <point x="122" y="665" type="curve"/>
      <point x="100" y="646"/>
      <point x="78" y="612"/>
      <point x="66" y="583" type="curve"/>
      <point x="138" y="558"/>
      <point x="155" y="537"/>
      <point x="145" y="513" type="curve" smooth="yes"/>
      <point x="136" y="492"/>
      <point x="108" y="491"/>
      <point x="54" y="507" type="curve"/>
      <point x="49" y="469"/>
      <point x="48" y="417"/>
      <point x="50" y="363" type="curve" smooth="yes"/>
      <point x="54" y="255"/>
      <point x="62" y="141"/>
    </contour>
    <contour>
      <point x="117" y="76" type="curve"/>
      <point x="115" y="136" type="line"/>
      <point x="97" y="138"/>
      <point x="89" y="131"/>
      <point x="89" y="109" type="curve" smooth="yes"/>
      <point x="89" y="83"/>
      <point x="99" y="76"/>
    </contour>
    <contour>
      <point x="87" y="234" type="curve"/>
      <point x="94" y="291" type="line"/>
      <point x="73" y="292"/>
      <point x="67" y="287"/>
      <point x="67" y="262" type="curve" smooth="yes"/>
      <point x="67" y="239"/>
      <point x="75" y="235"/>
    </contour>
    <contour>
      <point x="448" y="198" type="curve" smooth="yes"/>
      <point x="477" y="198"/>
      <point x="500" y="221"/>
      <point x="500" y="250" type="curve" smooth="yes"/>
      <point x="500" y="278"/>
      <point x="477" y="300"/>
      <point x="448" y="300" type="curve" smooth="yes"/>
      <point x="420" y="300"/>
      <point x="397" y="278"/>
      <point x="397" y="250" type="curve" smooth="yes"/>
      <point x="397" y="221"/>
      <point x="420" y="198"/>
    </contour>
  </outline>
</glyph>
<glyph name="V" format="2">
  <advance width="616"/>
  <unicode hex="0056"/>
  <unicode hex="0076"/>
  <anchor x="322" y="0" name="bottom"/>
  <anchor x="364" y="700" name="top"/>
  <outline>
    <contour>
      <point x="53" y="608" type="curve" smooth="yes"/>
      <point x="86" y="501"/>
      <point x="120" y="393"/>
      <point x="156" y="287" type="curve" smooth="yes"/>
      <point x="160" y="277"/>
      <point x="163" y="267"/>
      <point x="166" y="257" type="curve" smooth="yes"/>
      <point x="169" y="248"/>
      <point x="173" y="238"/>
      <point x="176" y="229" type="curve"/>
      <point x="181" y="215"/>
      <point x="185" y="202"/>
      <point x="190" y="188" type="curve" smooth="yes"/>
      <point x="194" y="177"/>
      <point x="198" y="166"/>
      <point x="201" y="155" type="curve"/>
      <point x="205" y="146"/>
      <point x="208" y="137"/>
      <point x="211" y="128" type="curve" smooth="yes"/>
      <point x="215" y="114"/>
      <point x="220" y="100"/>
      <point x="225" y="86" type="curve" smooth="yes"/>
      <point x="244" y="30"/>
      <point x="285" y="-2"/>
      <point x="346" y="-2" type="curve" smooth="yes"/>
      <point x="401" y="-2"/>
      <point x="438" y="23"/>
      <point x="461" y="105" type="curve" smooth="yes"/>
      <point x="462" y="108"/>
      <point x="463" y="111"/>
      <point x="463" y="111" type="curve"/>
      <point x="368" y="128"/>
      <point x="349" y="142"/>
      <point x="354" y="166" type="curve" smooth="yes"/>
      <point x="359" y="190"/>
      <point x="380" y="197"/>
      <point x="478" y="165" type="curve"/>
      <point x="484" y="183"/>
      <point x="489" y="199"/>
      <point x="493" y="217" type="curve"/>
      <point x="417" y="232"/>
      <point x="402" y="244"/>
      <point x="407" y="268" type="curve" smooth="yes"/>
      <point x="413" y="294"/>
      <point x="438" y="296"/>
      <point x="506" y="271" type="curve"/>
      <point x="538" y="393"/>
      <point x="568" y="516"/>
      <point x="595" y="639" type="curve" smooth="yes"/>
      <point x="604" y="679"/>
      <point x="597" y="712"/>
      <point x="558" y="712" type="curve" smooth="yes"/>
      <point x="537" y="712"/>
      <point x="519" y="698"/>
      <point x="505" y="665" type="curve" smooth="yes"/>
      <point x="450" y="532"/>
      <point x="400" y="398"/>
      <point x="343" y="265" type="curve" smooth="yes"/>
      <point x="329" y="233"/>
      <point x="313" y="220"/>
      <point x="294" y="220" type="curve" smooth="yes"/>
      <point x="276" y="220"/>
      <point x="263" y="234"/>
      <point x="252" y="269" type="curve" smooth="yes"/>
      <point x="213" y="388"/>
      <point x="181" y="518"/>
      <point x="146" y="637" type="curve" smooth="yes"/>
      <point x="136" y="673"/>
      <point x="119" y="691"/>
      <point x="95" y="691" type="curve" smooth="yes"/>
      <point x="59" y="691"/>
      <point x="37" y="662"/>
    </contour>
    <contour>
      <point x="315" y="534" type="curve" smooth="yes"/>
      <point x="352" y="534"/>
      <point x="383" y="565"/>
      <point x="383" y="603" type="curve" smooth="yes"/>
      <point x="383" y="640"/>
      <point x="352" y="671"/>
      <point x="315" y="671" type="curve" smooth="yes"/>
      <point x="277" y="671"/>
      <point x="246" y="640"/>
      <point x="246" y="603" type="curve" smooth="yes"/>
      <point x="246" y="565"/>
      <point x="277" y="534"/>
    </contour>
    <contour>
      <point x="508" y="450" type="curve" smooth="yes"/>
      <point x="502" y="452"/>
      <point x="493" y="455"/>
      <point x="487" y="457" type="curve" smooth="yes"/>
      <point x="466" y="462"/>
      <point x="454" y="458"/>
      <point x="449" y="434" type="curve" smooth="yes"/>
      <point x="444" y="412"/>
      <point x="450" y="398"/>
      <point x="470" y="393" type="curve" smooth="yes"/>
      <point x="476" y="392"/>
      <point x="483" y="390"/>
      <point x="489" y="389" type="curve" smooth="yes"/>
      <point x="509" y="384"/>
      <point x="521" y="391"/>
      <point x="526" y="412" type="curve" smooth="yes"/>
      <point x="530" y="428"/>
      <point x="526" y="445"/>
    </contour>
    <contour>
      <point x="213" y="475" type="curve" smooth="yes"/>
      <point x="175" y="465"/>
      <point x="139" y="455"/>
      <point x="103" y="443" type="curve" smooth="yes"/>
      <point x="48" y="425"/>
      <point x="30" y="416"/>
      <point x="37" y="392" type="curve" smooth="yes"/>
      <point x="44" y="367"/>
      <point x="65" y="367"/>
      <point x="119" y="380" type="curve" smooth="yes"/>
      <point x="157" y="389"/>
      <point x="195" y="398"/>
      <point x="231" y="409" type="curve" smooth="yes"/>
      <point x="291" y="427"/>
      <point x="312" y="439"/>
      <point x="304" y="467" type="curve" smooth="yes"/>
      <point x="296" y="492"/>
      <point x="274" y="491"/>
    </contour>
    <contour>
      <point x="114" y="604" type="curve" smooth="yes"/>
      <point x="109" y="603"/>
      <point x="103" y="602"/>
      <point x="98" y="601" type="curve" smooth="yes"/>
      <point x="83" y="598"/>
      <point x="81" y="583"/>
      <point x="85" y="570" type="curve" smooth="yes"/>
      <point x="88" y="558"/>
      <point x="96" y="549"/>
      <point x="105" y="551" type="curve" smooth="yes"/>
      <point x="110" y="552"/>
      <point x="115" y="553"/>
      <point x="120" y="554" type="curve" smooth="yes"/>
      <point x="133" y="556"/>
      <point x="137" y="569"/>
      <point x="135" y="581" type="curve" smooth="yes"/>
      <point x="133" y="594"/>
      <point x="125" y="606"/>
    </contour>
  </outline>
</glyph>
<glyph name="bracketleft" format="2">
  <advance width="342"/>
  <unicode hex="005B"/>
  <outline>
    <contour>
      <point x="79" y="-73" type="curve" smooth="yes"/>
      <point x="78" y="-135"/>
      <point x="103" y="-166"/>
      <point x="162" y="-166" type="curve" smooth="yes"/>
      <point x="207" y="-166"/>
      <point x="259" y="-165"/>
      <point x="305" y="-159" type="curve" smooth="yes"/>
      <point x="345" y="-154"/>
      <point x="357" y="-135"/>
      <point x="357" y="-115" type="curve" smooth="yes"/>
      <point x="357" y="-89"/>
      <point x="345" y="-70"/>
      <point x="316" y="-65" type="curve" smooth="yes"/>
      <point x="291" y="-61"/>
      <point x="270" y="-57"/>
      <point x="244" y="-55" type="curve" smooth="yes"/>
      <point x="210" y="-52"/>
      <point x="191" y="-36"/>
      <point x="192" y="0" type="curve" smooth="yes"/>
      <point x="196" y="243"/>
      <point x="204" y="509"/>
      <point x="213" y="739" type="curve" smooth="yes"/>
      <point x="214" y="761"/>
      <point x="226" y="777"/>
      <point x="255" y="778" type="curve" smooth="yes"/>
      <point x="269" y="779"/>
      <point x="287" y="779"/>
      <point x="302" y="780" type="curve" smooth="yes"/>
      <point x="330" y="781"/>
      <point x="341" y="797"/>
      <point x="341" y="822" type="curve" smooth="yes"/>
      <point x="341" y="847"/>
      <point x="320" y="862"/>
      <point x="298" y="865" type="curve" smooth="yes"/>
      <point x="275" y="868"/>
      <point x="217" y="869"/>
      <point x="177" y="868" type="curve" smooth="yes"/>
      <point x="132" y="867"/>
      <point x="104" y="849"/>
      <point x="102" y="792" type="curve" smooth="yes"/>
      <point x="90" y="502"/>
      <point x="82" y="217"/>
    </contour>
  </outline>
</glyph>
<glyph name="bracketright" format="2">
  <advance width="357"/>
  <unicode hex="005D"/>
  <outline>
    <contour>
      <point x="73" y="-167" type="curve" smooth="yes"/>
      <point x="99" y="-171"/>
      <point x="131" y="-173"/>
      <point x="166" y="-173" type="curve" smooth="yes"/>
      <point x="242" y="-173"/>
      <point x="283" y="-124"/>
      <point x="281" y="-44" type="curve" smooth="yes"/>
      <point x="274" y="203"/>
      <point x="266" y="471"/>
      <point x="252" y="709" type="curve" smooth="yes"/>
      <point x="249" y="768"/>
      <point x="233" y="799"/>
      <point x="181" y="797" type="curve" smooth="yes"/>
      <point x="155" y="796"/>
      <point x="92" y="786"/>
      <point x="60" y="778" type="curve" smooth="yes"/>
      <point x="25" y="769"/>
      <point x="2" y="759"/>
      <point x="2" y="735" type="curve" smooth="yes"/>
      <point x="2" y="707"/>
      <point x="21" y="697"/>
      <point x="48" y="699" type="curve" smooth="yes"/>
      <point x="66" y="700"/>
      <point x="82" y="703"/>
      <point x="103" y="704" type="curve" smooth="yes"/>
      <point x="133" y="705"/>
      <point x="157" y="689"/>
      <point x="155" y="637" type="curve" smooth="yes"/>
      <point x="149" y="445"/>
      <point x="143" y="195"/>
      <point x="139" y="-16" type="curve" smooth="yes"/>
      <point x="138" y="-64"/>
      <point x="127" y="-81"/>
      <point x="97" y="-77" type="curve" smooth="yes"/>
      <point x="83" y="-75"/>
      <point x="68" y="-72"/>
      <point x="53" y="-71" type="curve" smooth="yes"/>
      <point x="25" y="-70"/>
      <point x="5" y="-85"/>
      <point x="5" y="-112" type="curve" smooth="yes"/>
      <point x="5" y="-146"/>
      <point x="32" y="-161"/>
    </contour>
  </outline>
</glyph>
<glyph name="asciicircum" format="2">
  <advance width="522"/>
  <unicode hex="005E"/>
  <outline>
    <contour>
      <point x="58" y="458" type="curve" smooth="yes"/>
      <point x="40" y="429"/>
      <point x="38" y="407"/>
      <point x="59" y="394" type="curve" smooth="yes"/>
      <point x="79" y="382"/>
      <point x="99" y="387"/>
      <point x="125" y="419" type="curve" smooth="yes"/>
      <point x="162" y="466"/>
      <point x="201" y="518"/>
      <point x="238" y="562" type="curve" smooth="yes"/>
      <point x="257" y="585"/>
      <point x="275" y="586"/>
      <point x="295" y="569" type="curve" smooth="yes"/>
      <point x="328" y="542"/>
      <point x="373" y="498"/>
      <point x="417" y="460" type="curve" smooth="yes"/>
      <point x="435" y="444"/>
      <point x="457" y="439"/>
      <point x="470" y="450" type="curve" smooth="yes"/>
      <point x="484" y="461"/>
      <point x="481" y="476"/>
      <point x="470" y="499" type="curve" smooth="yes"/>
      <point x="443" y="555"/>
      <point x="413" y="613"/>
      <point x="385" y="662" type="curve" smooth="yes"/>
      <point x="361" y="703"/>
      <point x="334" y="722"/>
      <point x="289" y="722" type="curve" smooth="yes"/>
      <point x="241" y="722"/>
      <point x="214" y="697"/>
      <point x="182" y="650" type="curve" smooth="yes"/>
      <point x="145" y="596"/>
      <point x="97" y="522"/>
    </contour>
  </outline>
</glyph>
<glyph name="grave" format="2">
  <advance width="245"/>
  <unicode hex="0060"/>
  <outline>
    <contour>
      <point x="135" y="359" type="curve" smooth="yes"/>
      <point x="150" y="321"/>
      <point x="173" y="306"/>
      <point x="199" y="315" type="curve" smooth="yes"/>
      <point x="227" y="324"/>
      <point x="227" y="343"/>
      <point x="218" y="384" type="curve" smooth="yes"/>
      <point x="196" y="479"/>
      <point x="169" y="587"/>
      <point x="144" y="681" type="curve" smooth="yes"/>
      <point x="132" y="725"/>
      <point x="105" y="744"/>
      <point x="66" y="732" type="curve" smooth="yes"/>
      <point x="23" y="719"/>
      <point x="18" y="683"/>
      <point x="35" y="635" type="curve" smooth="yes"/>
      <point x="68" y="539"/>
      <point x="105" y="438"/>
    </contour>
  </outline>
</glyph>
<glyph name="bar" format="2">
  <advance width="225"/>
  <unicode hex="007C"/>
  <outline>
    <contour>
      <point x="61" y="718" type="curve" smooth="yes"/>
      <point x="62" y="461"/>
      <point x="66" y="190"/>
      <point x="69" y="-68" type="curve" smooth="yes"/>
      <point x="69" y="-110"/>
      <point x="86" y="-132"/>
      <point x="116" y="-132" type="curve" smooth="yes"/>
      <point x="149" y="-132"/>
      <point x="164" y="-109"/>
      <point x="164" y="-63" type="curve" smooth="yes"/>
      <point x="164" y="193"/>
      <point x="160" y="460"/>
      <point x="154" y="721" type="curve" smooth="yes"/>
      <point x="153" y="756"/>
      <point x="143" y="783"/>
      <point x="108" y="783" type="curve" smooth="yes"/>
      <point x="75" y="783"/>
      <point x="61" y="759"/>
    </contour>
  </outline>
</glyph>
<glyph name="asciitilde" format="2">
  <advance width="472"/>
  <unicode hex="007E"/>
  <outline>
    <contour>
      <point x="20" y="296" type="curve" smooth="yes"/>
      <point x="20" y="267"/>
      <point x="33" y="249"/>
      <point x="61" y="249" type="curve" smooth="yes"/>
      <point x="86" y="249"/>
      <point x="104" y="258"/>
      <point x="110" y="288" type="curve" smooth="yes"/>
      <point x="120" y="330"/>
      <point x="137" y="353"/>
      <point x="160" y="353" type="curve" smooth="yes"/>
      <point x="208" y="353"/>
      <point x="217" y="234"/>
      <point x="319" y="234" type="curve" smooth="yes"/>
      <point x="405" y="234"/>
      <point x="453" y="318"/>
      <point x="453" y="413" type="curve" smooth="yes"/>
      <point x="453" y="439"/>
      <point x="442" y="460"/>
      <point x="412" y="460" type="curve" smooth="yes"/>
      <point x="387" y="460"/>
      <point x="369" y="445"/>
      <point x="365" y="412" type="curve" smooth="yes"/>
      <point x="360" y="371"/>
      <point x="346" y="332"/>
      <point x="317" y="332" type="curve" smooth="yes"/>
      <point x="272" y="332"/>
      <point x="266" y="452"/>
      <point x="155" y="452" type="curve" smooth="yes"/>
      <point x="71" y="452"/>
      <point x="20" y="377"/>
    </contour>
  </outline>
</glyph>
<glyph name="periodcentered" format="2">
  <advance width="276"/>
  <unicode hex="00B7"/>
  <outline>
    <contour>
      <point x="136" y="247" type="curve" smooth="yes"/>
      <point x="192" y="247"/>
      <point x="226" y="278"/>
      <point x="226" y="350" type="curve" smooth="yes"/>
      <point x="226" y="408"/>
      <point x="203" y="458"/>
      <point x="152" y="458" type="curve" smooth="yes"/>
      <point x="99" y="458"/>
      <point x="60" y="423"/>
      <point x="60" y="350" type="curve" smooth="yes"/>
      <point x="60" y="285"/>
      <point x="90" y="247"/>
    </contour>
  </outline>
</glyph>
<glyph name="endash" format="2">
  <advance width="381"/>
  <unicode hex="2013"/>
  <outline>
    <contour>
      <point x="107" y="374" type="curve" smooth="yes"/>
      <point x="70" y="375"/>
      <point x="37" y="363"/>
      <point x="37" y="322" type="curve" smooth="yes"/>
      <point x="37" y="288"/>
      <point x="55" y="268"/>
      <point x="99" y="268" type="curve" smooth="yes"/>
      <point x="156" y="267"/>
      <point x="230" y="269"/>
      <point x="289" y="274" type="curve" smooth="yes"/>
      <point x="331" y="278"/>
      <point x="350" y="288"/>
      <point x="350" y="316" type="curve" smooth="yes"/>
      <point x="350" y="344"/>
      <point x="331" y="356"/>
      <point x="292" y="361" type="curve" smooth="yes"/>
      <point x="238" y="369"/>
      <point x="166" y="373"/>
    </contour>
  </outline>
</glyph>
<glyph name="emdash" format="2">
  <advance width="558"/>
  <unicode hex="2014"/>
  <outline>
    <contour>
      <point x="105" y="374" type="curve" smooth="yes"/>
      <point x="62" y="373"/>
      <point x="40" y="355"/>
      <point x="40" y="325" type="curve" smooth="yes"/>
      <point x="40" y="296"/>
      <point x="56" y="276"/>
      <point x="102" y="274" type="curve" smooth="yes"/>
      <point x="179" y="270"/>
      <point x="341" y="267"/>
      <point x="437" y="266" type="curve" smooth="yes"/>
      <point x="487" y="265"/>
      <point x="517" y="280"/>
      <point x="517" y="318" type="curve" smooth="yes"/>
      <point x="517" y="351"/>
      <point x="500" y="374"/>
      <point x="450" y="375" type="curve" smooth="yes"/>
      <point x="345" y="377"/>
      <point x="208" y="377"/>
    </contour>
  </outline>
</glyph>
<glyph name="quoteleft" format="2">
  <advance width="260"/>
  <unicode hex="2018"/>
  <outline>
    <contour>
      <point x="203" y="632" type="curve" smooth="yes"/>
      <point x="258" y="653"/>
      <point x="228" y="722"/>
      <point x="175" y="706" type="curve" smooth="yes"/>
      <point x="88" y="679"/>
      <point x="28" y="607"/>
      <point x="28" y="466" type="curve" smooth="yes"/>
      <point x="28" y="387"/>
      <point x="61" y="343"/>
      <point x="137" y="343" type="curve" smooth="yes"/>
      <point x="193" y="343"/>
      <point x="234" y="377"/>
      <point x="234" y="437" type="curve" smooth="yes"/>
      <point x="234" y="540"/>
      <point x="136" y="512"/>
      <point x="136" y="564" type="curve" smooth="yes"/>
      <point x="136" y="592"/>
      <point x="161" y="617"/>
    </contour>
    <contour>
      <point x="133" y="472" type="curve" smooth="yes"/>
      <point x="154" y="472"/>
      <point x="171" y="455"/>
      <point x="171" y="434" type="curve" smooth="yes"/>
      <point x="171" y="413"/>
      <point x="154" y="396"/>
      <point x="133" y="396" type="curve" smooth="yes"/>
      <point x="112" y="396"/>
      <point x="95" y="413"/>
      <point x="95" y="434" type="curve" smooth="yes"/>
      <point x="95" y="455"/>
      <point x="112" y="472"/>
    </contour>
    <contour>
      <point x="93" y="571" type="curve" smooth="yes"/>
      <point x="103" y="565"/>
      <point x="112" y="567"/>
      <point x="124" y="588" type="curve" smooth="yes"/>
      <point x="134" y="606"/>
      <point x="132" y="618"/>
      <point x="127" y="622" type="curve" smooth="yes"/>
      <point x="123" y="625"/>
      <point x="123" y="625"/>
      <point x="117" y="628" type="curve" smooth="yes"/>
      <point x="107" y="633"/>
      <point x="96" y="634"/>
      <point x="85" y="614" type="curve" smooth="yes"/>
      <point x="74" y="593"/>
      <point x="76" y="585"/>
      <point x="84" y="578" type="curve" smooth="yes"/>
      <point x="88" y="575"/>
      <point x="89" y="574"/>
    </contour>
  </outline>
</glyph>
<glyph name="quotedblleft" format="2">
  <advance width="509"/>
  <unicode hex="201C"/>
  <outline>
    <contour>
      <point x="218" y="659" type="curve" smooth="yes"/>
      <point x="259" y="690"/>
      <point x="211" y="749"/>
      <point x="167" y="717" type="curve" smooth="yes"/>
      <point x="95" y="665"/>
      <point x="31" y="586"/>
      <point x="31" y="442" type="curve" smooth="yes"/>
      <point x="31" y="363"/>
      <point x="61" y="310"/>
      <point x="135" y="310" type="curve" smooth="yes"/>
      <point x="189" y="310"/>
      <point x="224" y="342"/>
      <point x="224" y="393" type="curve" smooth="yes"/>
      <point x="224" y="485"/>
      <point x="133" y="456"/>
      <point x="133" y="522" type="curve" smooth="yes"/>
      <point x="133" y="566"/>
      <point x="170" y="622"/>
    </contour>
    <contour>
      <point x="140" y="415" type="curve" smooth="yes"/>
      <point x="140" y="415"/>
      <point x="140" y="415"/>
      <point x="140" y="415" type="curve" smooth="yes"/>
      <point x="140" y="415"/>
      <point x="140" y="415"/>
      <point x="140" y="415" type="curve" smooth="yes"/>
      <point x="140" y="415"/>
      <point x="140" y="415"/>
      <point x="140" y="415" type="curve" smooth="yes"/>
      <point x="140" y="415"/>
      <point x="140" y="415"/>
    </contour>
    <contour>
      <point x="99" y="566" type="curve" smooth="yes"/>
      <point x="109" y="560"/>
      <point x="118" y="562"/>
      <point x="130" y="583" type="curve" smooth="yes"/>
      <point x="140" y="601"/>
      <point x="138" y="613"/>
      <point x="133" y="617" type="curve" smooth="yes"/>
      <point x="129" y="620"/>
      <point x="129" y="620"/>
      <point x="123" y="623" type="curve" smooth="yes"/>
      <point x="113" y="628"/>
      <point x="102" y="629"/>
      <point x="91" y="609" type="curve" smooth="yes"/>
      <point x="80" y="588"/>
      <point x="82" y="580"/>
      <point x="90" y="573" type="curve" smooth="yes"/>
      <point x="94" y="570"/>
      <point x="95" y="569"/>
    </contour>
    <contour>
      <point x="456" y="620" type="curve" smooth="yes"/>
      <point x="508" y="643"/>
      <point x="474" y="703"/>
      <point x="428" y="684" type="curve" smooth="yes"/>
      <point x="336" y="647"/>
      <point x="265" y="566"/>
      <point x="265" y="417" type="curve" smooth="yes"/>
      <point x="265" y="331"/>
      <point x="299" y="286"/>
      <point x="375" y="286" type="curve" smooth="yes"/>
      <point x="439" y="286"/>
      <point x="476" y="324"/>
      <point x="476" y="381" type="curve" smooth="yes"/>
      <point x="476" y="492"/>
      <point x="366" y="454"/>
      <point x="366" y="508" type="curve" smooth="yes"/>
      <point x="366" y="538"/>
      <point x="395" y="593"/>
    </contour>
    <contour>
      <point x="375" y="421" type="curve" smooth="yes"/>
      <point x="398" y="421"/>
      <point x="416" y="403"/>
      <point x="416" y="380" type="curve" smooth="yes"/>
      <point x="416" y="357"/>
      <point x="398" y="339"/>
      <point x="375" y="339" type="curve" smooth="yes"/>
      <point x="352" y="339"/>
      <point x="334" y="357"/>
      <point x="334" y="380" type="curve" smooth="yes"/>
      <point x="334" y="403"/>
      <point x="352" y="421"/>
    </contour>
    <contour>
      <point x="374" y="550" type="curve" smooth="yes"/>
      <point x="416" y="524"/>
      <point x="437" y="516"/>
      <point x="450" y="532" type="curve" smooth="yes"/>
      <point x="462" y="548"/>
      <point x="453" y="568"/>
      <point x="414" y="598" type="curve" smooth="yes"/>
      <point x="397" y="611"/>
      <point x="379" y="625"/>
      <point x="362" y="636" type="curve" smooth="yes"/>
      <point x="312" y="669"/>
      <point x="292" y="674"/>
      <point x="280" y="658" type="curve" smooth="yes"/>
      <point x="268" y="642"/>
      <point x="273" y="618"/>
      <point x="314" y="589" type="curve" smooth="yes"/>
      <point x="331" y="577"/>
      <point x="356" y="561"/>
    </contour>
  </outline>
</glyph>
<glyph name="bullet" format="2">
  <advance width="352"/>
  <unicode hex="2022"/>
  <outline>
    <contour>
      <point x="181" y="250" type="curve" smooth="yes"/>
      <point x="258" y="250"/>
      <point x="302" y="290"/>
      <point x="302" y="364" type="curve" smooth="yes"/>
      <point x="302" y="439"/>
      <point x="262" y="493"/>
      <point x="189" y="493" type="curve" smooth="yes"/>
      <point x="114" y="494"/>
      <point x="60" y="435"/>
      <point x="60" y="359" type="curve" smooth="yes"/>
      <point x="60" y="293"/>
      <point x="112" y="250"/>
    </contour>
    <contour>
      <point x="214" y="419" type="curve" smooth="yes"/>
      <point x="214" y="419"/>
      <point x="214" y="419"/>
      <point x="214" y="419" type="curve" smooth="yes"/>
      <point x="214" y="419"/>
      <point x="214" y="419"/>
      <point x="214" y="419" type="curve" smooth="yes"/>
      <point x="214" y="419"/>
      <point x="214" y="419"/>
      <point x="214" y="419" type="curve" smooth="yes"/>
      <point x="214" y="419"/>
      <point x="214" y="419"/>
    </contour>
  </outline>
</glyph>
<glyph name="ellipsis" format="2">
  <advance width="760"/>
  <unicode hex="2026"/>
  <outline>
    <contour>
      <point x="371" y="-15" type="curve" smooth="yes"/>
      <point x="422" y="-15"/>
      <point x="452" y="9"/>
      <point x="452" y="58" type="curve" smooth="yes"/>
      <point x="452" y="103"/>
      <point x="425" y="134"/>
      <point x="376" y="134" type="curve" smooth="yes"/>
      <point x="330" y="134"/>
      <point x="295" y="104"/>
      <point x="295" y="60" type="curve" smooth="yes"/>
      <point x="295" y="17"/>
      <point x="325" y="-15"/>
    </contour>
    <contour>
      <point x="385" y="79" type="curve" smooth="yes"/>
      <point x="385" y="79"/>
      <point x="385" y="79"/>
      <point x="385" y="79" type="curve" smooth="yes"/>
      <point x="385" y="79"/>
      <point x="385" y="79"/>
      <point x="385" y="79" type="curve" smooth="yes"/>
      <point x="385" y="79"/>
      <point x="385" y="79"/>
      <point x="385" y="79" type="curve" smooth="yes"/>
      <point x="385" y="79"/>
      <point x="385" y="79"/>
    </contour>
    <contour>
      <point x="610" y="-14" type="curve" smooth="yes"/>
      <point x="677" y="-14"/>
      <point x="716" y="20"/>
      <point x="716" y="82" type="curve" smooth="yes"/>
      <point x="716" y="136"/>
      <point x="678" y="180"/>
      <point x="613" y="180" type="curve" smooth="yes"/>
      <point x="555" y="180"/>
      <point x="511" y="143"/>
      <point x="511" y="85" type="curve" smooth="yes"/>
      <point x="511" y="26"/>
      <point x="551" y="-14"/>
    </contour>
    <contour>
      <point x="600" y="49" type="curve" smooth="yes"/>
      <point x="577" y="49"/>
      <point x="559" y="67"/>
      <point x="559" y="90" type="curve" smooth="yes"/>
      <point x="559" y="112"/>
      <point x="577" y="131"/>
      <point x="600" y="131" type="curve" smooth="yes"/>
      <point x="622" y="131"/>
      <point x="641" y="112"/>
      <point x="641" y="90" type="curve" smooth="yes"/>
      <point x="641" y="67"/>
      <point x="622" y="49"/>
    </contour>
    <component base="period"/>
  </outline>
</glyph>
<glyph name="guilsinglleft" format="2">
  <advance width="331"/>
  <unicode hex="2039"/>
  <outline>
    <contour>
      <point x="233" y="32" type="curve" smooth="yes"/>
      <point x="263" y="-8"/>
      <point x="320" y="28"/>
      <point x="297" y="69" type="curve" smooth="yes"/>
      <point x="256" y="142"/>
      <point x="202" y="236"/>
      <point x="169" y="294" type="curve" smooth="yes"/>
      <point x="152" y="323"/>
      <point x="153" y="344"/>
      <point x="168" y="362" type="curve" smooth="yes"/>
      <point x="197" y="397"/>
      <point x="239" y="449"/>
      <point x="270" y="490" type="curve" smooth="yes"/>
      <point x="305" y="537"/>
      <point x="226" y="591"/>
      <point x="186" y="540" type="curve" smooth="yes"/>
      <point x="142" y="483"/>
      <point x="102" y="428"/>
      <point x="67" y="378" type="curve" smooth="yes"/>
      <point x="44" y="345"/>
      <point x="44" y="304"/>
      <point x="72" y="261" type="curve" smooth="yes"/>
      <point x="119" y="189"/>
      <point x="178" y="107"/>
    </contour>
  </outline>
</glyph>
<glyph name="guilsinglright" format="2">
  <advance width="331"/>
  <unicode hex="203A"/>
  <outline>
    <contour>
      <point x="116" y="556" type="curve" smooth="yes"/>
      <point x="80" y="603"/>
      <point x="13" y="556"/>
      <point x="43" y="512" type="curve" smooth="yes"/>
      <point x="83" y="454"/>
      <point x="133" y="386"/>
      <point x="169" y="338" type="curve" smooth="yes"/>
      <point x="186" y="315"/>
      <point x="187" y="290"/>
      <point x="177" y="272" type="curve" smooth="yes"/>
      <point x="154" y="231"/>
      <point x="107" y="145"/>
      <point x="80" y="93" type="curve" smooth="yes"/>
      <point x="54" y="43"/>
      <point x="119" y="6"/>
      <point x="149" y="48" type="curve" smooth="yes"/>
      <point x="202" y="120"/>
      <point x="242" y="179"/>
      <point x="275" y="233" type="curve" smooth="yes"/>
      <point x="296" y="267"/>
      <point x="299" y="306"/>
      <point x="270" y="347" type="curve" smooth="yes"/>
      <point x="222" y="415"/>
      <point x="167" y="490"/>
    </contour>
  </outline>
</glyph>
<glyph name="rightArrow" format="2">
  <advance width="680"/>
  <unicode hex="2192"/>
  <outline>
    <contour>
      <point x="9" y="336" type="curve" smooth="yes"/>
      <point x="9" y="296"/>
      <point x="35" y="268"/>
      <point x="81" y="267" type="curve" smooth="yes"/>
      <point x="223" y="265"/>
      <point x="367" y="290"/>
      <point x="507" y="289" type="curve" smooth="yes"/>
      <point x="526" y="289"/>
      <point x="532" y="273"/>
      <point x="519" y="262" type="curve" smooth="yes"/>
      <point x="462" y="212"/>
      <point x="409" y="181"/>
      <point x="357" y="135" type="curve" smooth="yes"/>
      <point x="317" y="100"/>
      <point x="321" y="61"/>
      <point x="345" y="39" type="curve" smooth="yes"/>
      <point x="369" y="17"/>
      <point x="409" y="14"/>
      <point x="445" y="50" type="curve" smooth="yes"/>
      <point x="507" y="112"/>
      <point x="576" y="189"/>
      <point x="641" y="270" type="curve" smooth="yes"/>
      <point x="681" y="320"/>
      <point x="676" y="368"/>
      <point x="646" y="409" type="curve" smooth="yes"/>
      <point x="573" y="507"/>
      <point x="503" y="581"/>
      <point x="434" y="654" type="curve" smooth="yes"/>
      <point x="398" y="692"/>
      <point x="358" y="687"/>
      <point x="331" y="662" type="curve" smooth="yes"/>
      <point x="302" y="636"/>
      <point x="295" y="591"/>
      <point x="338" y="553" type="curve" smooth="yes"/>
      <point x="396" y="501"/>
      <point x="462" y="459"/>
      <point x="500" y="425" type="curve" smooth="yes"/>
      <point x="524" y="404"/>
      <point x="509" y="386"/>
      <point x="488" y="386" type="curve" smooth="yes"/>
      <point x="368" y="385"/>
      <point x="228" y="402"/>
      <point x="87" y="401" type="curve" smooth="yes"/>
      <point x="44" y="401"/>
      <point x="9" y="380"/>
    </contour>
  </outline>
</glyph>
<glyph name="downArrow" format="2">
  <advance width="680"/>
  <unicode hex="2193"/>
  <outline>
    <contour>
      <point x="336" y="700" type="curve" smooth="yes"/>
      <point x="291" y="700"/>
      <point x="259" y="667"/>
      <point x="262" y="608" type="curve" smooth="yes"/>
      <point x="269" y="469"/>
      <point x="297" y="300"/>
      <point x="302" y="164" type="curve" smooth="yes"/>
      <point x="303" y="144"/>
      <point x="284" y="137"/>
      <point x="270" y="152" type="curve" smooth="yes"/>
      <point x="224" y="196"/>
      <point x="182" y="247"/>
      <point x="137" y="287" type="curve" smooth="yes"/>
      <point x="103" y="317"/>
      <point x="69" y="314"/>
      <point x="45" y="287" type="curve" smooth="yes"/>
      <point x="20" y="259"/>
      <point x="33" y="218"/>
      <point x="60" y="193" type="curve" smooth="yes"/>
      <point x="115" y="143"/>
      <point x="193" y="83"/>
      <point x="266" y="31" type="curve" smooth="yes"/>
      <point x="319" y="-7"/>
      <point x="381" y="-7"/>
      <point x="422" y="29" type="curve" smooth="yes"/>
      <point x="496" y="93"/>
      <point x="575" y="171"/>
      <point x="639" y="243" type="curve" smooth="yes"/>
      <point x="660" y="267"/>
      <point x="670" y="306"/>
      <point x="633" y="337" type="curve" smooth="yes"/>
      <point x="611" y="355"/>
      <point x="574" y="349"/>
      <point x="552" y="324" type="curve" smooth="yes"/>
      <point x="515" y="282"/>
      <point x="458" y="210"/>
      <point x="428" y="177" type="curve" smooth="yes"/>
      <point x="406" y="154"/>
      <point x="387" y="165"/>
      <point x="387" y="183" type="curve" smooth="yes"/>
      <point x="384" y="300"/>
      <point x="397" y="466"/>
      <point x="397" y="611" type="curve" smooth="yes"/>
      <point x="397" y="665"/>
      <point x="374" y="700"/>
    </contour>
  </outline>
</glyph>
<glyph name="spiralsun" format="2">
  <advance width="919"/>
  <unicode hex="2600"/>
  <outline>
    <contour>
      <point x="488" y="108" type="curve" smooth="yes"/>
      <point x="539" y="108"/>
      <point x="600" y="122"/>
      <point x="629" y="140" type="curve" smooth="yes"/>
      <point x="650" y="153"/>
      <point x="662" y="181"/>
      <point x="645" y="202" type="curve" smooth="yes"/>
      <point x="617" y="237"/>
      <point x="574" y="187"/>
      <point x="487" y="187" type="curve" smooth="yes"/>
      <point x="406" y="187"/>
      <point x="318" y="239"/>
      <point x="318" y="346" type="curve" smooth="yes"/>
      <point x="318" y="431"/>
      <point x="353" y="508"/>
      <point x="482" y="508" type="curve" smooth="yes"/>
      <point x="561" y="508"/>
      <point x="623" y="461"/>
      <point x="623" y="393" type="curve" smooth="yes"/>
      <point x="623" y="353"/>
      <point x="596" y="311"/>
      <point x="512" y="311" type="curve" smooth="yes"/>
      <point x="468" y="311"/>
      <point x="448" y="328"/>
      <point x="448" y="352" type="curve" smooth="yes"/>
      <point x="448" y="378"/>
      <point x="468" y="394"/>
      <point x="485" y="394" type="curve" smooth="yes"/>
      <point x="511" y="394"/>
      <point x="507" y="366"/>
      <point x="531" y="366" type="curve" smooth="yes"/>
      <point x="545" y="366"/>
      <point x="557" y="376"/>
      <point x="557" y="395" type="curve" smooth="yes"/>
      <point x="557" y="432"/>
      <point x="526" y="456"/>
      <point x="489" y="456" type="curve" smooth="yes"/>
      <point x="427" y="457"/>
      <point x="377" y="421"/>
      <point x="377" y="348" type="curve" smooth="yes"/>
      <point x="377" y="284"/>
      <point x="430" y="240"/>
      <point x="515" y="240" type="curve" smooth="yes"/>
      <point x="634" y="240"/>
      <point x="694" y="314"/>
      <point x="694" y="397" type="curve" smooth="yes"/>
      <point x="694" y="513"/>
      <point x="601" y="582"/>
      <point x="483" y="582" type="curve" smooth="yes"/>
      <point x="314" y="582"/>
      <point x="240" y="482"/>
      <point x="240" y="347" type="curve" smooth="yes"/>
      <point x="240" y="189"/>
      <point x="354" y="108"/>
    </contour>
    <contour>
      <point x="723" y="418" type="curve" smooth="yes"/>
      <point x="724" y="379"/>
      <point x="755" y="370"/>
      <point x="804" y="374" type="curve" smooth="yes"/>
      <point x="888" y="381"/>
      <point x="911" y="403"/>
      <point x="907" y="434" type="curve" smooth="yes"/>
      <point x="904" y="464"/>
      <point x="867" y="472"/>
      <point x="800" y="470" type="curve" smooth="yes"/>
      <point x="755" y="469"/>
      <point x="722" y="456"/>
    </contour>
    <contour>
      <point x="659" y="557" type="curve" smooth="yes"/>
      <point x="686" y="532"/>
      <point x="712" y="536"/>
      <point x="753" y="583" type="curve" smooth="yes"/>
      <point x="807" y="645"/>
      <point x="827" y="687"/>
      <point x="803" y="708" type="curve" smooth="yes"/>
      <point x="780" y="729"/>
      <point x="746" y="712"/>
      <point x="681" y="647" type="curve" smooth="yes"/>
      <point x="652" y="618"/>
      <point x="632" y="585"/>
    </contour>
    <contour>
      <point x="492" y="614" type="curve" smooth="yes"/>
      <point x="523" y="612"/>
      <point x="545" y="631"/>
      <point x="545" y="690" type="curve" smooth="yes"/>
      <point x="546" y="776"/>
      <point x="528" y="815"/>
      <point x="497" y="817" type="curve" smooth="yes"/>
      <point x="472" y="819"/>
      <point x="451" y="782"/>
      <point x="445" y="710" type="curve" smooth="yes"/>
      <point x="439" y="651"/>
      <point x="449" y="616"/>
    </contour>
    <contour>
      <point x="305" y="560" type="curve" smooth="yes"/>
      <point x="332" y="583"/>
      <point x="329" y="609"/>
      <point x="284" y="661" type="curve" smooth="yes"/>
      <point x="235" y="719"/>
      <point x="186" y="744"/>
      <point x="164" y="722" type="curve" smooth="yes"/>
      <point x="139" y="697"/>
      <point x="152" y="662"/>
      <point x="217" y="591" type="curve" smooth="yes"/>
      <point x="251" y="553"/>
      <point x="279" y="540"/>
    </contour>
    <contour>
      <point x="306" y="114" type="curve" smooth="yes"/>
      <point x="285" y="132"/>
      <point x="265" y="128"/>
      <point x="207" y="62" type="curve" smooth="yes"/>
      <point x="164" y="13"/>
      <point x="148" y="-31"/>
      <point x="176" y="-58" type="curve" smooth="yes"/>
      <point x="199" y="-78"/>
      <point x="246" y="-46"/>
      <point x="287" y="9" type="curve" smooth="yes"/>
      <point x="320" y="58"/>
      <point x="335" y="88"/>
    </contour>
    <contour>
      <point x="466" y="67" type="curve" smooth="yes"/>
      <point x="437" y="65"/>
      <point x="419" y="44"/>
      <point x="417" y="-18" type="curve" smooth="yes"/>
      <point x="413" y="-84"/>
      <point x="430" y="-121"/>
      <point x="462" y="-121" type="curve" smooth="yes"/>
      <point x="493" y="-119"/>
      <point x="515" y="-82"/>
      <point x="515" y="-17" type="curve" smooth="yes"/>
      <point x="514" y="35"/>
      <point x="498" y="69"/>
    </contour>
    <contour>
      <point x="639" y="100" type="curve" smooth="yes"/>
      <point x="614" y="85"/>
      <point x="615" y="63"/>
      <point x="646" y="7" type="curve" smooth="yes"/>
      <point x="686" y="-63"/>
      <point x="714" y="-84"/>
      <point x="746" y="-64" type="curve" smooth="yes"/>
      <point x="776" y="-46"/>
      <point x="765" y="-9"/>
      <point x="726" y="52" type="curve" smooth="yes"/>
      <point x="694" y="101"/>
      <point x="669" y="121"/>
    </contour>
    <contour>
      <point x="695" y="266" type="curve" smooth="yes"/>
      <point x="684" y="239"/>
      <point x="701" y="214"/>
      <point x="766" y="185" type="curve" smooth="yes"/>
      <point x="824" y="157"/>
      <point x="870" y="160"/>
      <point x="880" y="186" type="curve" smooth="yes"/>
      <point x="890" y="215"/>
      <point x="861" y="246"/>
      <point x="797" y="272" type="curve" smooth="yes"/>
      <point x="747" y="292"/>
      <point x="706" y="293"/>
    </contour>
    <contour>
      <point x="202" y="428" type="curve" smooth="yes"/>
      <point x="204" y="458"/>
      <point x="187" y="479"/>
      <point x="139" y="490" type="curve" smooth="yes"/>
      <point x="56" y="507"/>
      <point x="17" y="499"/>
      <point x="12" y="467" type="curve" smooth="yes"/>
      <point x="7" y="436"/>
      <point x="41" y="410"/>
      <point x="125" y="395" type="curve" smooth="yes"/>
      <point x="157" y="390"/>
      <point x="198" y="398"/>
    </contour>
    <contour>
      <point x="221" y="256" type="curve" smooth="yes"/>
      <point x="208" y="282"/>
      <point x="183" y="290"/>
      <point x="114" y="269" type="curve" smooth="yes"/>
      <point x="39" y="246"/>
      <point x="14" y="210"/>
      <point x="24" y="184" type="curve" smooth="yes"/>
      <point x="34" y="161"/>
      <point x="64" y="151"/>
      <point x="151" y="182" type="curve" smooth="yes"/>
      <point x="201" y="200"/>
      <point x="233" y="227"/>
    </contour>
  </outline>
</glyph>
<glyph name="border_1" format="2">
  <advance width="732"/>
  <unicode hex="E000"/>
  <outline>
    <contour>
      <point x="55" y="375" type="curve" smooth="yes"/>
      <point x="21" y="353"/>
      <point x="7" y="334"/>
      <point x="18" y="310" type="curve" smooth="yes"/>
      <point x="30" y="284"/>
      <point x="57" y="284"/>
      <point x="92" y="298" type="curve" smooth="yes"/>
      <point x="153" y="323"/>
      <point x="218" y="360"/>
      <point x="278" y="383" type="curve" smooth="yes"/>
      <point x="304" y="393"/>
      <point x="324" y="387"/>
      <point x="342" y="360" type="curve" smooth="yes"/>
      <point x="382" y="301"/>
      <point x="411" y="234"/>
      <point x="457" y="168" type="curve" smooth="yes"/>
      <point x="491" y="119"/>
      <point x="528" y="114"/>
      <point x="575" y="142" type="curve" smooth="yes"/>
      <point x="615" y="165"/>
      <point x="651" y="191"/>
      <point x="679" y="217" type="curve" smooth="yes"/>
      <point x="710" y="245"/>
      <point x="721" y="273"/>
      <point x="708" y="294" type="curve" smooth="yes"/>
      <point x="696" y="311"/>
      <point x="676" y="311"/>
      <point x="648" y="301" type="curve" smooth="yes"/>
      <point x="621" y="291"/>
      <point x="604" y="282"/>
      <point x="582" y="274" type="curve" smooth="yes"/>
      <point x="556" y="265"/>
      <point x="543" y="271"/>
      <point x="526" y="290" type="curve" smooth="yes"/>
      <point x="480" y="343"/>
      <point x="439" y="408"/>
      <point x="393" y="463" type="curve" smooth="yes"/>
      <point x="357" y="506"/>
      <point x="329" y="513"/>
      <point x="275" y="490" type="curve" smooth="yes"/>
      <point x="200" y="458"/>
      <point x="125" y="419"/>
    </contour>
    <contour>
      <point x="342" y="71" type="curve" smooth="yes"/>
      <point x="373" y="71"/>
      <point x="398" y="96"/>
      <point x="398" y="127" type="curve" smooth="yes"/>
      <point x="398" y="158"/>
      <point x="373" y="183"/>
      <point x="342" y="183" type="curve" smooth="yes"/>
      <point x="311" y="183"/>
      <point x="286" y="158"/>
      <point x="286" y="127" type="curve" smooth="yes"/>
      <point x="286" y="96"/>
      <point x="311" y="71"/>
    </contour>
    <contour>
      <point x="258" y="192" type="curve" smooth="yes"/>
      <point x="293" y="192"/>
      <point x="321" y="220"/>
      <point x="321" y="255" type="curve" smooth="yes"/>
      <point x="321" y="290"/>
      <point x="293" y="318"/>
      <point x="258" y="318" type="curve" smooth="yes"/>
      <point x="223" y="318"/>
      <point x="195" y="290"/>
      <point x="195" y="255" type="curve" smooth="yes"/>
      <point x="195" y="220"/>
      <point x="223" y="192"/>
    </contour>
  </outline>
</glyph>
<glyph name="acutecomb.case" format="2">
  <anchor x="110" y="700" name="_top"/>
  <anchor x="361" y="550" name="bottom"/>
  <anchor x="356" y="627" name="top"/>
  <outline>
    <contour>
      <point x="152" y="773" type="curve" smooth="yes"/>
      <point x="175" y="798"/>
      <point x="213" y="840"/>
      <point x="235" y="868" type="curve" smooth="yes"/>
      <point x="262" y="902"/>
      <point x="257" y="933"/>
      <point x="237" y="953" type="curve" smooth="yes"/>
      <point x="207" y="983"/>
      <point x="159" y="974"/>
      <point x="140" y="932" type="curve" smooth="yes"/>
      <point x="120" y="888"/>
      <point x="102" y="847"/>
      <point x="87" y="810" type="curve" smooth="yes"/>
      <point x="78" y="785"/>
      <point x="80" y="768"/>
      <point x="90" y="757" type="curve" smooth="yes"/>
      <point x="106" y="741"/>
      <point x="134" y="753"/>
    </contour>
  </outline>
</glyph>
<glyph name="cedillacomb.case" format="2">
  <anchor x="159" y="0" name="_cedilla"/>
  <anchor x="361" y="550" name="bottom"/>
  <anchor x="356" y="627" name="top"/>
  <outline>
    <contour>
      <point x="234" y="39" type="curve"/>
      <point x="151" y="39" type="line"/>
      <point x="107" y="-9"/>
      <point x="89" y="-42"/>
      <point x="89" y="-76" type="curve" smooth="yes"/>
      <point x="89" y="-116"/>
      <point x="117" y="-140"/>
      <point x="175" y="-147" type="curve" smooth="yes"/>
      <point x="227" y="-153"/>
      <point x="241" y="-167"/>
      <point x="241" y="-189" type="curve" smooth="yes"/>
      <point x="241" y="-219"/>
      <point x="223" y="-233"/>
      <point x="181" y="-233" type="curve" smooth="yes"/>
      <point x="119" y="-233"/>
      <point x="109" y="-186"/>
      <point x="80" y="-186" type="curve" smooth="yes"/>
      <point x="63" y="-186"/>
      <point x="49" y="-199"/>
      <point x="49" y="-219" type="curve" smooth="yes"/>
      <point x="49" y="-269"/>
      <point x="109" y="-308"/>
      <point x="180" y="-308" type="curve" smooth="yes"/>
      <point x="272" y="-308"/>
      <point x="320" y="-267"/>
      <point x="320" y="-188" type="curve" smooth="yes"/>
      <point x="320" y="-124"/>
      <point x="292" y="-94"/>
      <point x="222" y="-84" type="curve" smooth="yes"/>
      <point x="179" y="-78"/>
      <point x="167" y="-72"/>
      <point x="167" y="-55" type="curve" smooth="yes"/>
      <point x="167" y="-38"/>
      <point x="181" y="-11"/>
    </contour>
  </outline>
</glyph>
<glyph name="dotaccentcomb.case" format="2">
  <anchor x="110" y="700" name="_top"/>
  <anchor x="361" y="550" name="bottom"/>
  <anchor x="356" y="627" name="top"/>
  <outline>
    <contour>
      <point x="110" y="759" type="curve" smooth="yes"/>
      <point x="140" y="759"/>
      <point x="165" y="784"/>
      <point x="165" y="817" type="curve" smooth="yes"/>
      <point x="165" y="847"/>
      <point x="140" y="871"/>
      <point x="110" y="871" type="curve" smooth="yes"/>
      <point x="78" y="871"/>
      <point x="53" y="847"/>
      <point x="53" y="817" type="curve" smooth="yes"/>
      <point x="53" y="784"/>
      <point x="78" y="759"/>
    </contour>
  </outline>
</glyph>
<glyph name="hungarumlautcomb.case" format="2">
  <anchor x="190" y="700" name="_top"/>
  <anchor x="361" y="550" name="bottom"/>
  <anchor x="356" y="627" name="top"/>
  <outline>
    <contour>
      <point x="163" y="784" type="curve" smooth="yes"/>
      <point x="183" y="815"/>
      <point x="203" y="845"/>
      <point x="218" y="874" type="curve" smooth="yes"/>
      <point x="234" y="907"/>
      <point x="234" y="939"/>
      <point x="191" y="958" type="curve" smooth="yes"/>
      <point x="151" y="976"/>
      <point x="122" y="950"/>
      <point x="112" y="915" type="curve" smooth="yes"/>
      <point x="104" y="884"/>
      <point x="97" y="846"/>
      <point x="92" y="813" type="curve" smooth="yes"/>
      <point x="88" y="786"/>
      <point x="89" y="768"/>
      <point x="109" y="758" type="curve" smooth="yes"/>
      <point x="128" y="748"/>
      <point x="147" y="759"/>
    </contour>
    <contour>
      <point x="329" y="784" type="curve" smooth="yes"/>
      <point x="352" y="815"/>
      <point x="376" y="850"/>
      <point x="399" y="885" type="curve" smooth="yes"/>
      <point x="421" y="919"/>
      <point x="428" y="953"/>
      <point x="403" y="970" type="curve" smooth="yes"/>
      <point x="378" y="986"/>
      <point x="352" y="974"/>
      <point x="326" y="940" type="curve" smooth="yes"/>
      <point x="301" y="907"/>
      <point x="278" y="872"/>
      <point x="260" y="841" type="curve" smooth="yes"/>
      <point x="237" y="801"/>
      <point x="238" y="775"/>
      <point x="259" y="760" type="curve" smooth="yes"/>
      <point x="283" y="744"/>
      <point x="308" y="757"/>
    </contour>
  </outline>
</glyph>
